# MagicaVoxel @ Ephtracy

# material
mtllib Chicken -00.mtl
usemtl palette

# normals
vn -1 0 0
vn 1 0 0
vn 0 0 1
vn 0 0 -1
vn 0 -1 0
vn 0 1 0

# texcoords
vt 0.970703 0.5
vt 0.974609 0.5
vt 0.978516 0.5
vt 0.982422 0.5
vt 0.986328 0.5

# verts
v -3.5 2 1.5
v -3.5 2 -1.5
v -3.5 3 0.5
v -3.5 3 -0.5
v -3.5 3 -1.5
v -3.5 4 1.5
v -3.5 4 0.5
v -3.5 4 -0.5
v -2.5 2 2.5
v -2.5 2 1.5
v -2.5 2 -1.5
v -2.5 2 -2.5
v -2.5 3 -0.5
v -2.5 3 -1.5
v -2.5 4 1.5
v -2.5 4 0.5
v -2.5 4 -0.5
v -2.5 5 2.5
v -2.5 5 -2.5
v -1.5 0 1.5
v -1.5 0 -1.5
v -1.5 1 1.5
v -1.5 1 0.5
v -1.5 1 -0.5
v -1.5 1 -1.5
v -1.5 2 0.5
v -1.5 2 -0.5
v -1.5 3 -2.5
v -1.5 3 -3.5
v -1.5 5 2.5
v -1.5 5 0.5
v -1.5 5 -2.5
v -1.5 6 1.5
v -1.5 6 0.5
v -1.5 7 4.5
v -1.5 7 2.5
v -1.5 8 3.5
v -1.5 8 2.5
v -1.5 8 -2.5
v -1.5 8 -3.5
v -1.5 9 3.5
v -1.5 9 2.5
v -1.5 10 4.5
v -1.5 10 1.5
v -0.5 6 4.5
v -0.5 6 2.5
v -0.5 7 6.5
v -0.5 7 4.5
v -0.5 7 2.5
v -0.5 8 6.5
v -0.5 8 5.5
v -0.5 9 5.5
v -0.5 9 4.5
v -0.5 10 4.5
v -0.5 10 1.5
v -0.5 11 4.5
v -0.5 11 1.5
v 0.5 0 1.5
v 0.5 0 -1.5
v 0.5 1 1.5
v 0.5 1 0.5
v 0.5 1 -0.5
v 0.5 1 -1.5
v 0.5 2 0.5
v 0.5 2 -0.5
v -0.5 0 1.5
v -0.5 0 -1.5
v -0.5 1 1.5
v -0.5 1 0.5
v -0.5 1 -0.5
v -0.5 1 -1.5
v -0.5 2 0.5
v -0.5 2 -0.5
v 0.5 6 4.5
v 0.5 6 2.5
v 0.5 7 6.5
v 0.5 7 4.5
v 0.5 7 2.5
v 0.5 8 6.5
v 0.5 8 5.5
v 0.5 9 5.5
v 0.5 9 4.5
v 0.5 10 4.5
v 0.5 10 1.5
v 0.5 11 4.5
v 0.5 11 1.5
v 1.5 0 1.5
v 1.5 0 -1.5
v 1.5 1 1.5
v 1.5 1 0.5
v 1.5 1 -0.5
v 1.5 1 -1.5
v 1.5 2 0.5
v 1.5 2 -0.5
v 1.5 3 -2.5
v 1.5 3 -3.5
v 1.5 5 2.5
v 1.5 5 0.5
v 1.5 5 -2.5
v 1.5 6 1.5
v 1.5 6 0.5
v 1.5 7 4.5
v 1.5 7 2.5
v 1.5 8 3.5
v 1.5 8 2.5
v 1.5 8 -2.5
v 1.5 8 -3.5
v 1.5 9 3.5
v 1.5 9 2.5
v 1.5 10 4.5
v 1.5 10 1.5
v 2.5 2 2.5
v 2.5 2 1.5
v 2.5 2 -1.5
v 2.5 2 -2.5
v 2.5 3 -0.5
v 2.5 3 -1.5
v 2.5 4 1.5
v 2.5 4 0.5
v 2.5 4 -0.5
v 2.5 5 2.5
v 2.5 5 -2.5
v 3.5 2 1.5
v 3.5 2 -1.5
v 3.5 3 0.5
v 3.5 3 -0.5
v 3.5 3 -1.5
v 3.5 4 1.5
v 3.5 4 0.5
v 3.5 4 -0.5
v -0.5 7 6.5
v -0.5 8 6.5
v 0.5 7 6.5
v 0.5 8 6.5
v -0.5 8 5.5
v -0.5 9 5.5
v 0.5 8 5.5
v 0.5 9 5.5
v -1.5 7 4.5
v -1.5 10 4.5
v -0.5 6 4.5
v -0.5 7 4.5
v -0.5 9 4.5
v -0.5 10 4.5
v -0.5 11 4.5
v 0.5 6 4.5
v 0.5 7 4.5
v 0.5 9 4.5
v 0.5 10 4.5
v 0.5 11 4.5
v 1.5 7 4.5
v 1.5 10 4.5
v -2.5 2 2.5
v -2.5 5 2.5
v -1.5 3 2.5
v -1.5 4 2.5
v -1.5 5 2.5
v -1.5 7 2.5
v -0.5 3 2.5
v -0.5 4 2.5
v -0.5 6 2.5
v -0.5 7 2.5
v 0.5 4 2.5
v 0.5 5 2.5
v 0.5 6 2.5
v 0.5 7 2.5
v 1.5 4 2.5
v 1.5 5 2.5
v 1.5 7 2.5
v 2.5 2 2.5
v 2.5 5 2.5
v -3.5 2 1.5
v -3.5 4 1.5
v -2.5 2 1.5
v -2.5 4 1.5
v -1.5 0 1.5
v -1.5 1 1.5
v -0.5 0 1.5
v -0.5 1 1.5
v 0.5 0 1.5
v 0.5 1 1.5
v 1.5 0 1.5
v 1.5 1 1.5
v 2.5 2 1.5
v 2.5 4 1.5
v 3.5 2 1.5
v 3.5 4 1.5
v -1.5 1 0.5
v -1.5 2 0.5
v -0.5 1 0.5
v -0.5 2 0.5
v 0.5 1 0.5
v 0.5 2 0.5
v 1.5 1 0.5
v 1.5 2 0.5
v -1.5 5 -2.5
v -1.5 8 -2.5
v -0.5 5 -2.5
v -0.5 8 -2.5
v 0.5 5 -2.5
v 0.5 8 -2.5
v 1.5 5 -2.5
v 1.5 8 -2.5
v -1.5 6 1.5
v -1.5 10 1.5
v -0.5 10 1.5
v -0.5 11 1.5
v 0.5 10 1.5
v 0.5 11 1.5
v 1.5 6 1.5
v 1.5 10 1.5
v -1.5 5 0.5
v -1.5 6 0.5
v 1.5 5 0.5
v 1.5 6 0.5
v -3.5 3 -0.5
v -3.5 4 -0.5
v -2.5 3 -0.5
v -2.5 4 -0.5
v -1.5 1 -0.5
v -1.5 2 -0.5
v -0.5 1 -0.5
v -0.5 2 -0.5
v 0.5 1 -0.5
v 0.5 2 -0.5
v 1.5 1 -0.5
v 1.5 2 -0.5
v 2.5 3 -0.5
v 2.5 4 -0.5
v 3.5 3 -0.5
v 3.5 4 -0.5
v -3.5 2 -1.5
v -3.5 3 -1.5
v -2.5 2 -1.5
v -2.5 3 -1.5
v -1.5 0 -1.5
v -1.5 1 -1.5
v -0.5 0 -1.5
v -0.5 1 -1.5
v 0.5 0 -1.5
v 0.5 1 -1.5
v 1.5 0 -1.5
v 1.5 1 -1.5
v 2.5 2 -1.5
v 2.5 3 -1.5
v 3.5 2 -1.5
v 3.5 3 -1.5
v -2.5 2 -2.5
v -2.5 5 -2.5
v -1.5 3 -2.5
v -1.5 5 -2.5
v -0.5 3 -2.5
v 0.5 3 -2.5
v 1.5 3 -2.5
v 1.5 5 -2.5
v 2.5 2 -2.5
v 2.5 5 -2.5
v -1.5 3 -3.5
v -1.5 8 -3.5
v -0.5 3 -3.5
v -0.5 8 -3.5
v 0.5 3 -3.5
v 0.5 8 -3.5
v 1.5 3 -3.5
v 1.5 8 -3.5
v -1.5 0 1.5
v -0.5 0 1.5
v 0.5 0 1.5
v 1.5 0 1.5
v -1.5 0 -1.5
v -0.5 0 -1.5
v 0.5 0 -1.5
v 1.5 0 -1.5
v -2.5 2 2.5
v 2.5 2 2.5
v -3.5 2 1.5
v -2.5 2 1.5
v 2.5 2 1.5
v 3.5 2 1.5
v -1.5 2 0.5
v -0.5 2 0.5
v 0.5 2 0.5
v 1.5 2 0.5
v -1.5 2 -0.5
v -0.5 2 -0.5
v 0.5 2 -0.5
v 1.5 2 -0.5
v -3.5 2 -1.5
v -2.5 2 -1.5
v 2.5 2 -1.5
v 3.5 2 -1.5
v -2.5 2 -2.5
v 2.5 2 -2.5
v -1.5 3 -2.5
v -0.5 3 -2.5
v 0.5 3 -2.5
v 1.5 3 -2.5
v -1.5 3 -3.5
v -0.5 3 -3.5
v 0.5 3 -3.5
v 1.5 3 -3.5
v -0.5 6 4.5
v 0.5 6 4.5
v -0.5 6 2.5
v 0.5 6 2.5
v -0.5 7 6.5
v 0.5 7 6.5
v -1.5 7 4.5
v -0.5 7 4.5
v 0.5 7 4.5
v 1.5 7 4.5
v -1.5 7 2.5
v -0.5 7 2.5
v 0.5 7 2.5
v 1.5 7 2.5
v -1.5 1 1.5
v -0.5 1 1.5
v 0.5 1 1.5
v 1.5 1 1.5
v -1.5 1 0.5
v -0.5 1 0.5
v 0.5 1 0.5
v 1.5 1 0.5
v -1.5 1 -0.5
v -0.5 1 -0.5
v 0.5 1 -0.5
v 1.5 1 -0.5
v -1.5 1 -1.5
v -0.5 1 -1.5
v 0.5 1 -1.5
v 1.5 1 -1.5
v -3.5 3 -0.5
v -2.5 3 -0.5
v 2.5 3 -0.5
v 3.5 3 -0.5
v -3.5 3 -1.5
v -2.5 3 -1.5
v 2.5 3 -1.5
v 3.5 3 -1.5
v -3.5 4 1.5
v -2.5 4 1.5
v 2.5 4 1.5
v 3.5 4 1.5
v -3.5 4 0.5
v -2.5 4 0.5
v 2.5 4 0.5
v 3.5 4 0.5
v -3.5 4 -0.5
v -2.5 4 -0.5
v 2.5 4 -0.5
v 3.5 4 -0.5
v -2.5 5 2.5
v -1.5 5 2.5
v 1.5 5 2.5
v 2.5 5 2.5
v -1.5 5 0.5
v 1.5 5 0.5
v 0.5 5 -0.5
v 1.5 5 -0.5
v 0.5 5 -1.5
v 1.5 5 -1.5
v -2.5 5 -2.5
v -1.5 5 -2.5
v -0.5 5 -2.5
v 0.5 5 -2.5
v 1.5 5 -2.5
v 2.5 5 -2.5
v -1.5 6 1.5
v 1.5 6 1.5
v -1.5 6 0.5
v 1.5 6 0.5
v -0.5 8 6.5
v 0.5 8 6.5
v -0.5 8 5.5
v 0.5 8 5.5
v -1.5 8 -2.5
v -0.5 8 -2.5
v 0.5 8 -2.5
v 1.5 8 -2.5
v -1.5 8 -3.5
v -0.5 8 -3.5
v 0.5 8 -3.5
v 1.5 8 -3.5
v -0.5 9 5.5
v 0.5 9 5.5
v -0.5 9 4.5
v 0.5 9 4.5
v -1.5 10 4.5
v -0.5 10 4.5
v 0.5 10 4.5
v 1.5 10 4.5
v -1.5 10 1.5
v -0.5 10 1.5
v 0.5 10 1.5
v 1.5 10 1.5
v -0.5 11 4.5
v 0.5 11 4.5
v -0.5 11 1.5
v 0.5 11 1.5

# faces
f 3/2/1 2/2/1 1/2/1
f 4/2/1 2/2/1 3/2/1
f 5/2/1 2/2/1 4/2/1
f 6/2/1 3/2/1 1/2/1
f 7/5/1 4/5/1 3/5/1
f 7/2/1 3/2/1 6/2/1
f 8/5/1 4/5/1 7/5/1
f 14/2/1 12/2/1 11/2/1
f 15/2/1 10/2/1 9/2/1
f 17/2/1 14/2/1 13/2/1
f 18/2/1 16/2/1 15/2/1
f 18/2/1 17/2/1 16/2/1
f 18/2/1 15/2/1 9/2/1
f 19/2/1 14/2/1 17/2/1
f 19/2/1 17/2/1 18/2/1
f 19/2/1 12/2/1 14/2/1
f 22/1/1 21/1/1 20/1/1
f 23/1/1 21/1/1 22/1/1
f 24/1/1 21/1/1 23/1/1
f 25/1/1 21/1/1 24/1/1
f 26/2/1 24/2/1 23/2/1
f 27/2/1 24/2/1 26/2/1
f 32/5/1 29/5/1 28/5/1
f 33/2/1 31/2/1 30/2/1
f 34/2/1 31/2/1 33/2/1
f 36/2/1 33/2/1 30/2/1
f 37/2/1 36/2/1 35/2/1
f 38/2/1 33/2/1 36/2/1
f 38/2/1 36/2/1 37/2/1
f 39/5/1 29/5/1 32/5/1
f 40/5/1 29/5/1 39/5/1
f 41/4/1 38/4/1 37/4/1
f 41/2/1 37/2/1 35/2/1
f 42/2/1 33/2/1 38/2/1
f 42/4/1 38/4/1 41/4/1
f 43/2/1 41/2/1 35/2/1
f 43/2/1 42/2/1 41/2/1
f 44/2/1 33/2/1 42/2/1
f 44/2/1 42/2/1 43/2/1
f 48/3/1 46/3/1 45/3/1
f 49/3/1 46/3/1 48/3/1
f 50/1/1 48/1/1 47/1/1
f 51/1/1 48/1/1 50/1/1
f 52/1/1 48/1/1 51/1/1
f 53/1/1 48/1/1 52/1/1
f 56/3/1 55/3/1 54/3/1
f 57/3/1 55/3/1 56/3/1
f 60/1/1 59/1/1 58/1/1
f 61/1/1 59/1/1 60/1/1
f 62/1/1 59/1/1 61/1/1
f 63/1/1 59/1/1 62/1/1
f 64/2/1 62/2/1 61/2/1
f 65/2/1 62/2/1 64/2/1
f 66/1/2 67/1/2 68/1/2
f 68/1/2 67/1/2 69/1/2
f 69/1/2 67/1/2 70/1/2
f 70/1/2 67/1/2 71/1/2
f 69/2/2 70/2/2 72/2/2
f 72/2/2 70/2/2 73/2/2
f 74/3/2 75/3/2 77/3/2
f 77/3/2 75/3/2 78/3/2
f 76/1/2 77/1/2 79/1/2
f 79/1/2 77/1/2 80/1/2
f 80/1/2 77/1/2 81/1/2
f 81/1/2 77/1/2 82/1/2
f 83/3/2 84/3/2 85/3/2
f 85/3/2 84/3/2 86/3/2
f 87/1/2 88/1/2 89/1/2
f 89/1/2 88/1/2 90/1/2
f 90/1/2 88/1/2 91/1/2
f 91/1/2 88/1/2 92/1/2
f 90/2/2 91/2/2 93/2/2
f 93/2/2 91/2/2 94/2/2
f 95/5/2 96/5/2 99/5/2
f 97/2/2 98/2/2 100/2/2
f 100/2/2 98/2/2 101/2/2
f 97/2/2 100/2/2 103/2/2
f 102/2/2 103/2/2 104/2/2
f 103/2/2 100/2/2 105/2/2
f 104/2/2 103/2/2 105/2/2
f 99/5/2 96/5/2 106/5/2
f 106/5/2 96/5/2 107/5/2
f 104/4/2 105/4/2 108/4/2
f 102/2/2 104/2/2 108/2/2
f 105/2/2 100/2/2 109/2/2
f 108/4/2 105/4/2 109/4/2
f 102/2/2 108/2/2 110/2/2
f 108/2/2 109/2/2 110/2/2
f 109/2/2 100/2/2 111/2/2
f 110/2/2 109/2/2 111/2/2
f 114/2/2 115/2/2 117/2/2
f 112/2/2 113/2/2 118/2/2
f 116/2/2 117/2/2 120/2/2
f 118/2/2 119/2/2 121/2/2
f 119/2/2 120/2/2 121/2/2
f 112/2/2 118/2/2 121/2/2
f 120/2/2 117/2/2 122/2/2
f 121/2/2 120/2/2 122/2/2
f 117/2/2 115/2/2 122/2/2
f 123/2/2 124/2/2 125/2/2
f 125/2/2 124/2/2 126/2/2
f 126/2/2 124/2/2 127/2/2
f 123/2/2 125/2/2 128/2/2
f 125/5/2 126/5/2 129/5/2
f 128/2/2 125/2/2 129/2/2
f 129/5/2 126/5/2 130/5/2
f 133/1/3 132/1/3 131/1/3
f 134/1/3 132/1/3 133/1/3
f 137/1/3 136/1/3 135/1/3
f 138/1/3 136/1/3 137/1/3
f 142/2/3 140/2/3 139/2/3
f 143/2/3 140/2/3 142/2/3
f 144/2/3 140/2/3 143/2/3
f 146/3/3 142/3/3 141/3/3
f 147/3/3 142/3/3 146/3/3
f 148/2/3 144/2/3 143/2/3
f 149/3/3 145/3/3 144/3/3
f 149/2/3 144/2/3 148/2/3
f 150/3/3 145/3/3 149/3/3
f 151/2/3 148/2/3 147/2/3
f 151/2/3 149/2/3 148/2/3
f 152/2/3 149/2/3 151/2/3
f 155/2/3 154/2/3 153/2/3
f 156/2/3 154/2/3 155/2/3
f 157/2/3 154/2/3 156/2/3
f 159/2/3 155/2/3 153/2/3
f 159/5/3 156/5/3 155/5/3
f 160/2/3 158/2/3 157/2/3
f 160/5/3 156/5/3 159/5/3
f 160/2/3 157/2/3 156/2/3
f 161/2/3 158/2/3 160/2/3
f 162/2/3 158/2/3 161/2/3
f 163/2/3 160/2/3 159/2/3
f 163/2/3 161/2/3 160/2/3
f 164/2/3 161/2/3 163/2/3
f 165/2/3 161/2/3 164/2/3
f 167/2/3 163/2/3 159/2/3
f 167/5/3 164/5/3 163/5/3
f 168/2/3 166/2/3 165/2/3
f 168/5/3 164/5/3 167/5/3
f 168/2/3 165/2/3 164/2/3
f 169/2/3 166/2/3 168/2/3
f 170/2/3 159/2/3 153/2/3
f 170/2/3 167/2/3 159/2/3
f 170/2/3 168/2/3 167/2/3
f 171/2/3 168/2/3 170/2/3
f 174/2/3 173/2/3 172/2/3
f 175/2/3 173/2/3 174/2/3
f 178/1/3 177/1/3 176/1/3
f 179/1/3 177/1/3 178/1/3
f 182/1/3 181/1/3 180/1/3
f 183/1/3 181/1/3 182/1/3
f 186/2/3 185/2/3 184/2/3
f 187/2/3 185/2/3 186/2/3
f 190/2/3 189/2/3 188/2/3
f 191/2/3 189/2/3 190/2/3
f 194/2/3 193/2/3 192/2/3
f 195/2/3 193/2/3 194/2/3
f 198/5/3 197/5/3 196/5/3
f 199/5/3 197/5/3 198/5/3
f 200/2/3 199/2/3 198/2/3
f 201/2/3 199/2/3 200/2/3
f 202/5/3 201/5/3 200/5/3
f 203/5/3 201/5/3 202/5/3
f 204/2/4 205/2/4 206/2/4
f 204/2/4 206/2/4 208/2/4
f 206/3/4 207/3/4 208/3/4
f 208/3/4 207/3/4 209/3/4
f 204/2/4 208/2/4 210/2/4
f 210/2/4 208/2/4 211/2/4
f 212/2/4 213/2/4 214/2/4
f 214/2/4 213/2/4 215/2/4
f 216/5/4 217/5/4 218/5/4
f 218/5/4 217/5/4 219/5/4
f 220/2/4 221/2/4 222/2/4
f 222/2/4 221/2/4 223/2/4
f 224/2/4 225/2/4 226/2/4
f 226/2/4 225/2/4 227/2/4
f 228/5/4 229/5/4 230/5/4
f 230/5/4 229/5/4 231/5/4
f 232/2/4 233/2/4 234/2/4
f 234/2/4 233/2/4 235/2/4
f 236/1/4 237/1/4 238/1/4
f 238/1/4 237/1/4 239/1/4
f 240/1/4 241/1/4 242/1/4
f 242/1/4 241/1/4 243/1/4
f 244/2/4 245/2/4 246/2/4
f 246/2/4 245/2/4 247/2/4
f 248/2/4 249/2/4 250/2/4
f 250/2/4 249/2/4 251/2/4
f 248/2/4 250/2/4 252/2/4
f 248/2/4 252/2/4 253/2/4
f 248/2/4 253/2/4 254/2/4
f 248/2/4 254/2/4 256/2/4
f 254/2/4 255/2/4 256/2/4
f 256/2/4 255/2/4 257/2/4
f 258/5/4 259/5/4 260/5/4
f 260/5/4 259/5/4 261/5/4
f 260/2/4 261/2/4 262/2/4
f 262/2/4 261/2/4 263/2/4
f 262/5/4 263/5/4 264/5/4
f 264/5/4 263/5/4 265/5/4
f 270/1/5 267/1/5 266/1/5
f 271/1/5 267/1/5 270/1/5
f 272/1/5 269/1/5 268/1/5
f 273/1/5 269/1/5 272/1/5
f 277/2/5 275/2/5 274/2/5
f 278/2/5 275/2/5 277/2/5
f 280/2/5 277/2/5 276/2/5
f 280/2/5 279/2/5 278/2/5
f 280/2/5 278/2/5 277/2/5
f 281/2/5 279/2/5 280/2/5
f 282/2/5 279/2/5 281/2/5
f 283/2/5 279/2/5 282/2/5
f 284/2/5 280/2/5 276/2/5
f 285/2/5 282/2/5 281/2/5
f 286/2/5 282/2/5 285/2/5
f 287/2/5 279/2/5 283/2/5
f 288/2/5 286/2/5 285/2/5
f 288/2/5 287/2/5 286/2/5
f 288/2/5 284/2/5 276/2/5
f 288/2/5 285/2/5 284/2/5
f 289/2/5 287/2/5 288/2/5
f 290/2/5 279/2/5 287/2/5
f 290/2/5 287/2/5 289/2/5
f 291/2/5 279/2/5 290/2/5
f 292/2/5 290/2/5 289/2/5
f 293/2/5 290/2/5 292/2/5
f 298/5/5 295/5/5 294/5/5
f 299/2/5 296/2/5 295/2/5
f 299/5/5 295/5/5 298/5/5
f 300/5/5 297/5/5 296/5/5
f 300/2/5 296/2/5 299/2/5
f 301/5/5 297/5/5 300/5/5
f 304/3/5 303/3/5 302/3/5
f 305/3/5 303/3/5 304/3/5
f 309/1/5 307/1/5 306/1/5
f 310/1/5 307/1/5 309/1/5
f 312/2/5 309/2/5 308/2/5
f 313/2/5 309/2/5 312/2/5
f 314/2/5 311/2/5 310/2/5
f 315/2/5 311/2/5 314/2/5
f 316/1/6 317/1/6 320/1/6
f 320/1/6 317/1/6 321/1/6
f 318/1/6 319/1/6 322/1/6
f 322/1/6 319/1/6 323/1/6
f 324/1/6 325/1/6 328/1/6
f 328/1/6 325/1/6 329/1/6
f 326/1/6 327/1/6 330/1/6
f 330/1/6 327/1/6 331/1/6
f 332/2/6 333/2/6 336/2/6
f 336/2/6 333/2/6 337/2/6
f 334/2/6 335/2/6 338/2/6
f 338/2/6 335/2/6 339/2/6
f 340/2/6 341/2/6 344/2/6
f 344/2/6 341/2/6 345/2/6
f 342/2/6 343/2/6 346/2/6
f 346/2/6 343/2/6 347/2/6
f 344/5/6 345/5/6 348/5/6
f 348/5/6 345/5/6 349/5/6
f 346/5/6 347/5/6 350/5/6
f 350/5/6 347/5/6 351/5/6
f 352/2/6 353/2/6 356/2/6
f 354/2/6 355/2/6 357/2/6
f 356/2/6 357/2/6 358/2/6
f 357/2/6 355/2/6 359/2/6
f 358/2/6 357/2/6 359/2/6
f 356/2/6 358/2/6 360/2/6
f 358/5/6 359/5/6 360/5/6
f 359/2/6 355/2/6 361/2/6
f 360/5/6 359/5/6 361/5/6
f 352/2/6 356/2/6 362/2/6
f 356/2/6 360/2/6 362/2/6
f 360/2/6 361/2/6 362/2/6
f 362/2/6 361/2/6 363/2/6
f 363/2/6 361/2/6 364/2/6
f 364/2/6 361/2/6 365/2/6
f 361/2/6 355/2/6 366/2/6
f 365/2/6 361/2/6 366/2/6
f 366/2/6 355/2/6 367/2/6
f 368/2/6 369/2/6 370/2/6
f 370/2/6 369/2/6 371/2/6
f 372/1/6 373/1/6 374/1/6
f 374/1/6 373/1/6 375/1/6
f 376/5/6 377/5/6 380/5/6
f 377/2/6 378/2/6 381/2/6
f 380/5/6 377/5/6 381/5/6
f 378/5/6 379/5/6 382/5/6
f 381/2/6 378/2/6 382/2/6
f 382/5/6 379/5/6 383/5/6
f 384/1/6 385/1/6 386/1/6
f 386/1/6 385/1/6 387/1/6
f 388/2/6 389/2/6 392/2/6
f 392/2/6 389/2/6 393/2/6
f 390/2/6 391/2/6 394/2/6
f 394/2/6 391/2/6 395/2/6
f 396/3/6 397/3/6 398/3/6
f 398/3/6 397/3/6 399/3/6
