# MagicaVoxel @ Ephtracy

# material
mtllib butterfly is blue-00.mtl
usemtl palette

# normals
vn -1 0 0
vn 1 0 0
vn 0 0 1
vn 0 0 -1
vn 0 -1 0
vn 0 1 0

# texcoords
vt 0.970703 0.5
vt 0.974609 0.5

# verts
v -2.5 3 0.5
v -2.5 3 -0.5
v -2.5 4 0.5
v -2.5 4 -0.5
v -1.5 0 0.5
v -1.5 0 -0.5
v -1.5 3 0.5
v -1.5 3 -0.5
v -0.5 0 2.5
v -0.5 0 1.5
v -0.5 0 -1.5
v -0.5 0 -2.5
v -0.5 2 2.5
v -0.5 2 1.5
v -0.5 2 0.5
v -0.5 2 -0.5
v -0.5 2 -1.5
v -0.5 2 -2.5
v -0.5 3 0.5
v -0.5 3 -0.5
v -0.5 5 1.5
v -0.5 5 0.5
v -0.5 5 -0.5
v -0.5 5 -1.5
v -1.5 3 0.5
v -1.5 3 -0.5
v -1.5 4 0.5
v -1.5 4 -0.5
v -0.5 0 0.5
v -0.5 0 -0.5
v -0.5 2 0.5
v -0.5 2 -0.5
v -0.5 3 0.5
v -0.5 3 -0.5
v 1.5 0 2.5
v 1.5 0 1.5
v 1.5 0 -1.5
v 1.5 0 -2.5
v 1.5 2 2.5
v 1.5 2 1.5
v 1.5 2 -1.5
v 1.5 2 -2.5
v 2.5 2 1.5
v 2.5 2 0.5
v 2.5 2 -0.5
v 2.5 2 -1.5
v 2.5 5 1.5
v 2.5 5 0.5
v 2.5 5 -0.5
v 2.5 5 -1.5
v -0.5 0 2.5
v -0.5 2 2.5
v 1.5 0 2.5
v 1.5 2 2.5
v -0.5 2 1.5
v -0.5 5 1.5
v 1.5 2 1.5
v 2.5 2 1.5
v 2.5 5 1.5
v -2.5 3 0.5
v -2.5 4 0.5
v -1.5 0 0.5
v -1.5 3 0.5
v -1.5 4 0.5
v -0.5 0 0.5
v -0.5 2 0.5
v -0.5 3 0.5
v -0.5 2 -0.5
v -0.5 3 -0.5
v -0.5 5 -0.5
v 2.5 2 -0.5
v 2.5 5 -0.5
v -0.5 0 -1.5
v -0.5 2 -1.5
v 1.5 0 -1.5
v 1.5 2 -1.5
v -0.5 0 1.5
v -0.5 2 1.5
v 1.5 0 1.5
v 1.5 2 1.5
v -0.5 2 0.5
v -0.5 3 0.5
v -0.5 5 0.5
v 2.5 2 0.5
v 2.5 5 0.5
v -2.5 3 -0.5
v -2.5 4 -0.5
v -1.5 0 -0.5
v -1.5 3 -0.5
v -1.5 4 -0.5
v -0.5 0 -0.5
v -0.5 2 -0.5
v -0.5 3 -0.5
v -0.5 2 -1.5
v -0.5 5 -1.5
v 1.5 2 -1.5
v 2.5 2 -1.5
v 2.5 5 -1.5
v -0.5 0 -2.5
v -0.5 2 -2.5
v 1.5 0 -2.5
v 1.5 2 -2.5
v -0.5 0 2.5
v 1.5 0 2.5
v -0.5 0 1.5
v 1.5 0 1.5
v -1.5 0 0.5
v -0.5 0 0.5
v -1.5 0 -0.5
v -0.5 0 -0.5
v -0.5 0 -1.5
v 1.5 0 -1.5
v -0.5 0 -2.5
v 1.5 0 -2.5
v -0.5 2 1.5
v 1.5 2 1.5
v 2.5 2 1.5
v -0.5 2 0.5
v 2.5 2 0.5
v -0.5 2 -0.5
v 2.5 2 -0.5
v -0.5 2 -1.5
v 1.5 2 -1.5
v 2.5 2 -1.5
v -2.5 3 0.5
v -1.5 3 0.5
v -2.5 3 -0.5
v -1.5 3 -0.5
v -0.5 2 2.5
v 1.5 2 2.5
v -0.5 2 1.5
v 1.5 2 1.5
v -0.5 2 -1.5
v 1.5 2 -1.5
v -0.5 2 -2.5
v 1.5 2 -2.5
v -1.5 3 0.5
v -0.5 3 0.5
v -1.5 3 -0.5
v -0.5 3 -0.5
v -2.5 4 0.5
v -1.5 4 0.5
v -2.5 4 -0.5
v -1.5 4 -0.5
v -0.5 5 1.5
v 2.5 5 1.5
v -0.5 5 0.5
v 2.5 5 0.5
v -0.5 5 -0.5
v 2.5 5 -0.5
v -0.5 5 -1.5
v 2.5 5 -1.5

# faces
f 3/1/1 2/1/1 1/1/1
f 4/1/1 2/1/1 3/1/1
f 7/1/1 6/1/1 5/1/1
f 8/1/1 6/1/1 7/1/1
f 13/2/1 10/2/1 9/2/1
f 14/2/1 10/2/1 13/2/1
f 17/2/1 12/2/1 11/2/1
f 18/2/1 12/2/1 17/2/1
f 19/2/1 15/2/1 14/2/1
f 20/2/1 17/2/1 16/2/1
f 21/2/1 19/2/1 14/2/1
f 22/2/1 19/2/1 21/2/1
f 23/2/1 17/2/1 20/2/1
f 24/2/1 17/2/1 23/2/1
f 25/1/2 26/1/2 27/1/2
f 27/1/2 26/1/2 28/1/2
f 29/1/2 30/1/2 31/1/2
f 31/1/2 30/1/2 32/1/2
f 31/1/2 32/1/2 33/1/2
f 33/1/2 32/1/2 34/1/2
f 35/2/2 36/2/2 39/2/2
f 39/2/2 36/2/2 40/2/2
f 37/2/2 38/2/2 41/2/2
f 41/2/2 38/2/2 42/2/2
f 43/2/2 44/2/2 47/2/2
f 47/2/2 44/2/2 48/2/2
f 45/2/2 46/2/2 49/2/2
f 49/2/2 46/2/2 50/2/2
f 53/2/3 52/2/3 51/2/3
f 54/2/3 52/2/3 53/2/3
f 57/2/3 56/2/3 55/2/3
f 58/2/3 56/2/3 57/2/3
f 59/2/3 56/2/3 58/2/3
f 63/1/3 61/1/3 60/1/3
f 64/1/3 61/1/3 63/1/3
f 65/1/3 63/1/3 62/1/3
f 66/1/3 63/1/3 65/1/3
f 67/1/3 63/1/3 66/1/3
f 71/2/3 69/2/3 68/2/3
f 71/2/3 70/2/3 69/2/3
f 72/2/3 70/2/3 71/2/3
f 75/2/3 74/2/3 73/2/3
f 76/2/3 74/2/3 75/2/3
f 77/2/4 78/2/4 79/2/4
f 79/2/4 78/2/4 80/2/4
f 81/2/4 82/2/4 84/2/4
f 82/2/4 83/2/4 84/2/4
f 84/2/4 83/2/4 85/2/4
f 86/1/4 87/1/4 89/1/4
f 89/1/4 87/1/4 90/1/4
f 88/1/4 89/1/4 91/1/4
f 91/1/4 89/1/4 92/1/4
f 92/1/4 89/1/4 93/1/4
f 94/2/4 95/2/4 96/2/4
f 96/2/4 95/2/4 97/2/4
f 97/2/4 95/2/4 98/2/4
f 99/2/4 100/2/4 101/2/4
f 101/2/4 100/2/4 102/2/4
f 105/2/5 104/2/5 103/2/5
f 106/2/5 104/2/5 105/2/5
f 109/1/5 108/1/5 107/1/5
f 110/1/5 108/1/5 109/1/5
f 113/2/5 112/2/5 111/2/5
f 114/2/5 112/2/5 113/2/5
f 118/2/5 116/2/5 115/2/5
f 118/2/5 117/2/5 116/2/5
f 119/2/5 117/2/5 118/2/5
f 122/2/5 121/2/5 120/2/5
f 123/2/5 121/2/5 122/2/5
f 124/2/5 121/2/5 123/2/5
f 127/1/5 126/1/5 125/1/5
f 128/1/5 126/1/5 127/1/5
f 129/2/6 130/2/6 131/2/6
f 131/2/6 130/2/6 132/2/6
f 133/2/6 134/2/6 135/2/6
f 135/2/6 134/2/6 136/2/6
f 137/1/6 138/1/6 139/1/6
f 139/1/6 138/1/6 140/1/6
f 141/1/6 142/1/6 143/1/6
f 143/1/6 142/1/6 144/1/6
f 145/2/6 146/2/6 147/2/6
f 147/2/6 146/2/6 148/2/6
f 149/2/6 150/2/6 151/2/6
f 151/2/6 150/2/6 152/2/6
