# MagicaVoxel @ Ephtracy

# group
o 

# material
mtllib chickcoop-2.mtl
usemtl palette

# normals
vn -1 0 0
vn 1 0 0
vn 0 0 1
vn 0 0 -1
vn 0 -1 0
vn 0 1 0

# texcoords
vt 0.939453 0.5
vt 0.943359 0.5
vt 0.947266 0.5
vt 0.951172 0.5

# verts
v -2.5 0 -0.2
v -2.5 0 -24.7
v -2.5 0.1 -0.7
v -2.5 0.1 -24.7
v -2.5 0.2 -0.2
v -2.5 0.2 -0.7
v -2.5 0.2 -24.6
v -2.5 0.2 -24.7
v -2.5 8 -0.3
v -2.5 8 -0.4
v -2.5 10 -0.4
v -2.5 10 -0.6
v -2.5 15 -0.3
v -2.5 15 -0.6
v -2.5 15 -24.6
v -2.5 15 -24.7
v 0.5 9.2 -0.3
v 0.5 9.2 -0.4
v 0.5 9.4 -0.3
v 0.5 9.4 -0.4
v 2.4 8 -0.3
v 2.4 8 -0.4
v 2.4 9.8 -0.3
v 2.4 9.8 -0.4
v 2.4 9.9 -0.3
v 2.4 9.9 -0.4
v 2.4 10 -0.3
v 2.4 10 -0.4
v 2.5 0 0.3
v 2.5 0 -0.2
v 2.5 0.2 -0.2
v 2.5 0.2 -0.5
v 2.5 0.2 -0.6
v 2.5 1.3 0.2
v 2.5 1.3 -0.4
v 2.5 1.4 0.2
v 2.5 1.4 -0.4
v 2.5 1.5 0.3
v 2.5 1.5 -0.3
v 2.5 1.5 -0.5
v 2.5 8 -0.3
v 2.5 8 -0.4
v 2.5 10 -0.4
v 2.5 10 -0.6
v 7.4 0.2 -0.6
v 7.4 0.2 -24.6
v 7.4 15 -0.6
v 7.4 15 -24.6
v -1.9 8 -0.3
v -1.9 8 -0.4
v -1.9 9.4 -0.3
v -1.9 9.4 -0.4
v 1 9.2 -0.3
v 1 9.2 -0.4
v 1 9.8 -0.3
v 1 9.8 -0.4
v 2.3 9.9 -0.3
v 2.3 9.9 -0.4
v 2.3 10 -0.3
v 2.3 10 -0.4
v 7.4 0 -0.5
v 7.4 0 -0.6
v 7.4 1.5 -0.5
v 7.4 1.5 -0.6
v 7.5 0 0.3
v 7.5 0 -0.5
v 7.5 0 -0.6
v 7.5 0 -24.7
v 7.5 1.5 0.3
v 7.5 1.5 -0.3
v 7.5 1.5 -0.5
v 7.5 1.5 -0.6
v 7.5 15 -0.3
v 7.5 15 -24.7
v 2.5 0 0.3
v 2.5 1.5 0.3
v 2.6 0 0.3
v 2.6 1.5 0.3
v 3 0.6 0.3
v 3 1 0.3
v 3.4 0.6 0.3
v 3.4 1 0.3
v 3.9 0 0.3
v 3.9 1.5 0.3
v 4 0 0.3
v 4 1.5 0.3
v 4.6 0.6 0.3
v 4.6 1 0.3
v 5 0.6 0.3
v 5 1 0.3
v 5.4 0 0.3
v 5.4 1.5 0.3
v 5.5 0 0.3
v 5.5 1.5 0.3
v 6.2 0.6 0.3
v 6.2 1 0.3
v 6.8 0.6 0.3
v 6.8 1 0.3
v 7.4 0 0.3
v 7.4 1.5 0.3
v 7.5 0 0.3
v 7.5 1.5 0.3
v -2.5 0 -0.2
v -2.5 0.2 -0.2
v 2.5 0 -0.2
v 2.5 0.2 -0.2
v -2.5 8 -0.3
v -2.5 15 -0.3
v -1.9 8 -0.3
v -1.9 9.4 -0.3
v 0.5 9.2 -0.3
v 0.5 9.4 -0.3
v 1 9.2 -0.3
v 1 9.8 -0.3
v 2.3 9.9 -0.3
v 2.3 10 -0.3
v 2.4 8 -0.3
v 2.4 9.8 -0.3
v 2.4 9.9 -0.3
v 2.4 10 -0.3
v 2.5 1.5 -0.3
v 2.5 8 -0.3
v 2.6 1.5 -0.3
v 3.9 1.5 -0.3
v 4 1.5 -0.3
v 5.4 1.5 -0.3
v 5.5 1.5 -0.3
v 7.4 1.5 -0.3
v 7.5 1.5 -0.3
v 7.5 15 -0.3
v 7.4 0 -0.6
v 7.4 1.5 -0.6
v 7.5 0 -0.6
v 7.5 1.5 -0.6
v -2.5 0.2 -24.6
v -2.5 15 -24.6
v -2.4 0.2 -24.6
v -0.6 0.2 -24.6
v -0.5 0.2 -24.6
v 1.4 0.2 -24.6
v 1.5 0.2 -24.6
v 3.4 0.2 -24.6
v 3.5 0.2 -24.6
v 5.5 0.2 -24.6
v 5.6 0.2 -24.6
v 7.4 0.2 -24.6
v 7.4 15 -24.6
v -2.5 8 -0.4
v -2.5 10 -0.4
v -1.9 8 -0.4
v -1.9 9.4 -0.4
v 0.5 9.2 -0.4
v 0.5 9.4 -0.4
v 1 9.2 -0.4
v 1 9.8 -0.4
v 2.3 9.9 -0.4
v 2.3 10 -0.4
v 2.4 8 -0.4
v 2.4 9.8 -0.4
v 2.4 9.9 -0.4
v 2.4 10 -0.4
v 2.5 8 -0.4
v 2.5 10 -0.4
v 7.4 0 -0.5
v 7.4 1.5 -0.5
v 7.5 0 -0.5
v 7.5 1.5 -0.5
v -2.5 10 -0.6
v -2.5 15 -0.6
v 2.5 0.2 -0.6
v 2.5 10 -0.6
v 3.4 0.2 -0.6
v 3.5 0.2 -0.6
v 5.5 0.2 -0.6
v 5.6 0.2 -0.6
v 7.4 0.2 -0.6
v 7.4 15 -0.6
v -2.5 0 -24.7
v -2.5 0.1 -24.7
v -2.5 0.2 -24.7
v -2.5 15 -24.7
v -2.4 0.1 -24.7
v -2.4 0.2 -24.7
v -0.6 0.1 -24.7
v -0.6 0.2 -24.7
v -0.5 0.1 -24.7
v -0.5 0.2 -24.7
v 1.4 0.1 -24.7
v 1.4 0.2 -24.7
v 1.5 0.1 -24.7
v 1.5 0.2 -24.7
v 3.4 0.1 -24.7
v 3.4 0.2 -24.7
v 3.5 0.1 -24.7
v 3.5 0.2 -24.7
v 5.5 0.1 -24.7
v 5.5 0.2 -24.7
v 5.6 0.1 -24.7
v 5.6 0.2 -24.7
v 7.5 0 -24.7
v 7.5 15 -24.7
v 2.5 0 0.3
v 2.6 0 0.3
v 3.9 0 0.3
v 4 0 0.3
v 5.4 0 0.3
v 5.5 0 0.3
v 7.4 0 0.3
v 7.5 0 0.3
v 3.9 0 0.2
v 4 0 0.2
v 5.4 0 0.2
v 5.5 0 0.2
v -2.5 0 -0.2
v 2.5 0 -0.2
v 3.9 0 -0.4
v 4 0 -0.4
v 5.4 0 -0.4
v 5.5 0 -0.4
v 2.5 0 -0.5
v 2.6 0 -0.5
v 3.9 0 -0.5
v 4 0 -0.5
v 5.4 0 -0.5
v 5.5 0 -0.5
v 7.4 0 -0.5
v 7.5 0 -0.5
v 7.4 0 -0.6
v 7.5 0 -0.6
v -2.5 0 -24.7
v 7.5 0 -24.7
v 7.4 1.5 -0.5
v 7.5 1.5 -0.5
v 7.4 1.5 -0.6
v 7.5 1.5 -0.6
v -2.5 8 -0.3
v -1.9 8 -0.3
v 2.4 8 -0.3
v 2.5 8 -0.3
v -2.5 8 -0.4
v -1.9 8 -0.4
v 2.4 8 -0.4
v 2.5 8 -0.4
v 0.5 9.2 -0.3
v 1 9.2 -0.3
v 0.5 9.2 -0.4
v 1 9.2 -0.4
v -1.9 9.4 -0.3
v 0.5 9.4 -0.3
v -1.9 9.4 -0.4
v 0.5 9.4 -0.4
v 1 9.8 -0.3
v 2.4 9.8 -0.3
v 1 9.8 -0.4
v 2.4 9.8 -0.4
v 2.3 10 -0.3
v 2.4 10 -0.3
v -2.5 10 -0.4
v 2.3 10 -0.4
v 2.4 10 -0.4
v 2.5 10 -0.4
v -2.5 10 -0.6
v 2.5 10 -0.6
v -2.5 0.2 -0.2
v 2.5 0.2 -0.2
v 2.5 0.2 -0.5
v 2.5 0.2 -0.6
v 3.4 0.2 -0.6
v 3.5 0.2 -0.6
v 5.5 0.2 -0.6
v 5.6 0.2 -0.6
v 7.4 0.2 -0.6
v -2.5 0.2 -0.7
v -2.4 0.2 -0.7
v -0.6 0.2 -0.7
v -0.5 0.2 -0.7
v 1.4 0.2 -0.7
v 1.5 0.2 -0.7
v -2.5 0.2 -24.6
v -2.4 0.2 -24.6
v -0.6 0.2 -24.6
v -0.5 0.2 -24.6
v 1.4 0.2 -24.6
v 1.5 0.2 -24.6
v 3.4 0.2 -24.6
v 3.5 0.2 -24.6
v 5.5 0.2 -24.6
v 5.6 0.2 -24.6
v 7.4 0.2 -24.6
v 2.5 1.5 0.3
v 2.6 1.5 0.3
v 3.9 1.5 0.3
v 4 1.5 0.3
v 5.4 1.5 0.3
v 5.5 1.5 0.3
v 7.4 1.5 0.3
v 7.5 1.5 0.3
v 2.5 1.5 -0.3
v 2.6 1.5 -0.3
v 3.9 1.5 -0.3
v 4 1.5 -0.3
v 5.4 1.5 -0.3
v 5.5 1.5 -0.3
v 7.4 1.5 -0.3
v 7.5 1.5 -0.3
v 2.3 9.9 -0.3
v 2.4 9.9 -0.3
v 2.3 9.9 -0.4
v 2.4 9.9 -0.4
v -2.5 15 -0.3
v 7.5 15 -0.3
v -2.5 15 -0.6
v 7.4 15 -0.6
v -2.5 15 -24.6
v 7.4 15 -24.6
v -2.5 15 -24.7
v 7.5 15 -24.7

# faces
f 3/3/1 2/3/1 1/3/1
f 4/3/1 2/3/1 3/3/1
f 5/3/1 3/3/1 1/3/1
f 6/4/1 4/4/1 3/4/1
f 6/3/1 3/3/1 5/3/1
f 7/4/1 4/4/1 6/4/1
f 8/4/1 4/4/1 7/4/1
f 11/3/1 10/3/1 9/3/1
f 13/3/1 11/3/1 9/3/1
f 13/3/1 12/3/1 11/3/1
f 14/3/1 12/3/1 13/3/1
f 15/3/1 8/3/1 7/3/1
f 16/3/1 8/3/1 15/3/1
f 19/3/1 18/3/1 17/3/1
f 20/3/1 18/3/1 19/3/1
f 23/3/1 22/3/1 21/3/1
f 24/3/1 22/3/1 23/3/1
f 27/3/1 26/3/1 25/3/1
f 28/3/1 26/3/1 27/3/1
f 31/2/1 30/2/1 29/2/1
f 34/2/1 31/2/1 29/2/1
f 34/2/1 32/2/1 31/2/1
f 35/2/1 32/2/1 34/2/1
f 36/2/1 34/2/1 29/2/1
f 36/1/1 35/1/1 34/1/1
f 37/2/1 32/2/1 35/2/1
f 37/1/1 35/1/1 36/1/1
f 38/2/1 36/2/1 29/2/1
f 38/2/1 37/2/1 36/2/1
f 39/2/1 37/2/1 38/2/1
f 40/3/1 33/3/1 32/3/1
f 40/2/1 37/2/1 39/2/1
f 40/2/1 32/2/1 37/2/1
f 41/3/1 40/3/1 39/3/1
f 42/3/1 40/3/1 41/3/1
f 43/3/1 40/3/1 42/3/1
f 44/3/1 33/3/1 40/3/1
f 44/3/1 40/3/1 43/3/1
f 47/3/1 46/3/1 45/3/1
f 48/3/1 46/3/1 47/3/1
f 49/3/2 50/3/2 51/3/2
f 51/3/2 50/3/2 52/3/2
f 53/3/2 54/3/2 55/3/2
f 55/3/2 54/3/2 56/3/2
f 57/3/2 58/3/2 59/3/2
f 59/3/2 58/3/2 60/3/2
f 61/3/2 62/3/2 63/3/2
f 63/3/2 62/3/2 64/3/2
f 65/2/2 66/2/2 69/2/2
f 69/2/2 66/2/2 70/2/2
f 70/2/2 66/2/2 71/2/2
f 67/3/2 68/3/2 72/3/2
f 70/3/2 71/3/2 73/3/2
f 71/3/2 72/3/2 73/3/2
f 72/3/2 68/3/2 74/3/2
f 73/3/2 72/3/2 74/3/2
f 77/2/3 76/2/3 75/2/3
f 78/2/3 76/2/3 77/2/3
f 79/1/3 78/1/3 77/1/3
f 80/1/3 78/1/3 79/1/3
f 81/1/3 79/1/3 77/1/3
f 81/2/3 80/2/3 79/2/3
f 82/1/3 78/1/3 80/1/3
f 82/2/3 80/2/3 81/2/3
f 83/1/3 81/1/3 77/1/3
f 83/1/3 82/1/3 81/1/3
f 84/1/3 78/1/3 82/1/3
f 84/1/3 82/1/3 83/1/3
f 85/2/3 84/2/3 83/2/3
f 86/2/3 84/2/3 85/2/3
f 87/1/3 86/1/3 85/1/3
f 88/1/3 86/1/3 87/1/3
f 89/1/3 87/1/3 85/1/3
f 89/2/3 88/2/3 87/2/3
f 90/1/3 86/1/3 88/1/3
f 90/2/3 88/2/3 89/2/3
f 91/1/3 89/1/3 85/1/3
f 91/1/3 90/1/3 89/1/3
f 92/1/3 86/1/3 90/1/3
f 92/1/3 90/1/3 91/1/3
f 93/2/3 92/2/3 91/2/3
f 94/2/3 92/2/3 93/2/3
f 95/1/3 94/1/3 93/1/3
f 96/1/3 94/1/3 95/1/3
f 97/1/3 95/1/3 93/1/3
f 97/2/3 96/2/3 95/2/3
f 98/1/3 94/1/3 96/1/3
f 98/2/3 96/2/3 97/2/3
f 99/1/3 97/1/3 93/1/3
f 99/1/3 98/1/3 97/1/3
f 100/1/3 94/1/3 98/1/3
f 100/1/3 98/1/3 99/1/3
f 101/2/3 100/2/3 99/2/3
f 102/2/3 100/2/3 101/2/3
f 105/3/3 104/3/3 103/3/3
f 106/3/3 104/3/3 105/3/3
f 109/3/3 108/3/3 107/3/3
f 110/3/3 108/3/3 109/3/3
f 112/3/3 108/3/3 110/3/3
f 113/3/3 112/3/3 111/3/3
f 114/3/3 108/3/3 112/3/3
f 114/3/3 112/3/3 113/3/3
f 115/3/3 108/3/3 114/3/3
f 116/3/3 108/3/3 115/3/3
f 118/3/3 115/3/3 114/3/3
f 119/3/3 115/3/3 118/3/3
f 120/3/3 108/3/3 116/3/3
f 122/3/3 119/3/3 118/3/3
f 122/3/3 120/3/3 119/3/3
f 122/3/3 118/3/3 117/3/3
f 123/3/3 122/3/3 121/3/3
f 124/3/3 122/3/3 123/3/3
f 125/3/3 122/3/3 124/3/3
f 126/3/3 122/3/3 125/3/3
f 127/3/3 122/3/3 126/3/3
f 128/3/3 122/3/3 127/3/3
f 129/3/3 122/3/3 128/3/3
f 130/3/3 108/3/3 120/3/3
f 130/3/3 122/3/3 129/3/3
f 130/3/3 120/3/3 122/3/3
f 133/3/3 132/3/3 131/3/3
f 134/3/3 132/3/3 133/3/3
f 137/3/3 136/3/3 135/3/3
f 138/3/3 136/3/3 137/3/3
f 139/3/3 136/3/3 138/3/3
f 140/3/3 136/3/3 139/3/3
f 141/3/3 136/3/3 140/3/3
f 142/3/3 136/3/3 141/3/3
f 143/3/3 136/3/3 142/3/3
f 144/3/3 136/3/3 143/3/3
f 145/3/3 136/3/3 144/3/3
f 146/3/3 136/3/3 145/3/3
f 147/3/3 136/3/3 146/3/3
f 148/3/4 149/3/4 150/3/4
f 150/3/4 149/3/4 151/3/4
f 151/3/4 149/3/4 153/3/4
f 152/3/4 153/3/4 154/3/4
f 153/3/4 149/3/4 155/3/4
f 154/3/4 153/3/4 155/3/4
f 155/3/4 149/3/4 156/3/4
f 156/3/4 149/3/4 157/3/4
f 155/3/4 156/3/4 159/3/4
f 159/3/4 156/3/4 160/3/4
f 158/3/4 159/3/4 162/3/4
f 160/3/4 161/3/4 162/3/4
f 159/3/4 160/3/4 162/3/4
f 162/3/4 161/3/4 163/3/4
f 164/2/4 165/2/4 166/2/4
f 166/2/4 165/2/4 167/2/4
f 168/3/4 169/3/4 171/3/4
f 170/3/4 171/3/4 172/3/4
f 172/3/4 171/3/4 173/3/4
f 173/3/4 171/3/4 174/3/4
f 174/3/4 171/3/4 175/3/4
f 175/3/4 171/3/4 176/3/4
f 171/3/4 169/3/4 177/3/4
f 176/3/4 171/3/4 177/3/4
f 178/3/4 179/3/4 182/3/4
f 179/4/4 180/4/4 182/4/4
f 180/3/4 181/3/4 183/3/4
f 182/4/4 180/4/4 183/4/4
f 178/3/4 182/3/4 184/3/4
f 182/3/4 183/3/4 184/3/4
f 183/3/4 181/3/4 185/3/4
f 184/3/4 183/3/4 185/3/4
f 178/3/4 184/3/4 186/3/4
f 184/4/4 185/4/4 186/4/4
f 185/3/4 181/3/4 187/3/4
f 186/4/4 185/4/4 187/4/4
f 178/3/4 186/3/4 188/3/4
f 186/3/4 187/3/4 188/3/4
f 187/3/4 181/3/4 189/3/4
f 188/3/4 187/3/4 189/3/4
f 178/3/4 188/3/4 190/3/4
f 188/4/4 189/4/4 190/4/4
f 189/3/4 181/3/4 191/3/4
f 190/4/4 189/4/4 191/4/4
f 178/3/4 190/3/4 192/3/4
f 190/3/4 191/3/4 192/3/4
f 191/3/4 181/3/4 193/3/4
f 192/3/4 191/3/4 193/3/4
f 178/3/4 192/3/4 194/3/4
f 192/4/4 193/4/4 194/4/4
f 193/3/4 181/3/4 195/3/4
f 194/4/4 193/4/4 195/4/4
f 178/3/4 194/3/4 196/3/4
f 194/3/4 195/3/4 196/3/4
f 195/3/4 181/3/4 197/3/4
f 196/3/4 195/3/4 197/3/4
f 178/3/4 196/3/4 198/3/4
f 196/4/4 197/4/4 198/4/4
f 197/3/4 181/3/4 199/3/4
f 198/4/4 197/4/4 199/4/4
f 178/3/4 198/3/4 200/3/4
f 198/3/4 199/3/4 200/3/4
f 199/3/4 181/3/4 201/3/4
f 200/3/4 199/3/4 201/3/4
f 210/1/5 204/1/5 203/1/5
f 210/2/5 205/2/5 204/2/5
f 211/1/5 206/1/5 205/1/5
f 211/2/5 205/2/5 210/2/5
f 212/2/5 207/2/5 206/2/5
f 212/1/5 206/1/5 211/1/5
f 213/1/5 208/1/5 207/1/5
f 213/2/5 207/2/5 212/2/5
f 215/2/5 203/2/5 202/2/5
f 216/1/5 212/1/5 211/1/5
f 216/1/5 210/1/5 203/1/5
f 216/1/5 211/1/5 210/1/5
f 216/1/5 213/1/5 212/1/5
f 217/1/5 213/1/5 216/1/5
f 218/1/5 213/1/5 217/1/5
f 219/1/5 208/1/5 213/1/5
f 219/1/5 213/1/5 218/1/5
f 220/3/5 215/3/5 214/3/5
f 220/2/5 203/2/5 215/2/5
f 221/1/5 216/1/5 203/1/5
f 221/2/5 203/2/5 220/2/5
f 222/2/5 217/2/5 216/2/5
f 222/1/5 216/1/5 221/1/5
f 223/1/5 218/1/5 217/1/5
f 223/2/5 217/2/5 222/2/5
f 224/2/5 219/2/5 218/2/5
f 224/1/5 218/1/5 223/1/5
f 225/1/5 208/1/5 219/1/5
f 225/2/5 219/2/5 224/2/5
f 226/2/5 209/2/5 208/2/5
f 226/1/5 208/1/5 225/1/5
f 227/2/5 209/2/5 226/2/5
f 228/3/5 222/3/5 221/3/5
f 228/3/5 225/3/5 224/3/5
f 228/3/5 226/3/5 225/3/5
f 228/3/5 221/3/5 220/3/5
f 228/3/5 224/3/5 223/3/5
f 228/3/5 223/3/5 222/3/5
f 230/3/5 220/3/5 214/3/5
f 230/3/5 229/3/5 228/3/5
f 230/3/5 228/3/5 220/3/5
f 231/3/5 229/3/5 230/3/5
f 234/3/5 233/3/5 232/3/5
f 235/3/5 233/3/5 234/3/5
f 240/3/5 237/3/5 236/3/5
f 241/3/5 237/3/5 240/3/5
f 242/3/5 239/3/5 238/3/5
f 243/3/5 239/3/5 242/3/5
f 246/3/5 245/3/5 244/3/5
f 247/3/5 245/3/5 246/3/5
f 250/3/5 249/3/5 248/3/5
f 251/3/5 249/3/5 250/3/5
f 254/3/5 253/3/5 252/3/5
f 255/3/5 253/3/5 254/3/5
f 259/3/5 257/3/5 256/3/5
f 260/3/5 257/3/5 259/3/5
f 262/3/5 259/3/5 258/3/5
f 262/3/5 261/3/5 260/3/5
f 262/3/5 260/3/5 259/3/5
f 263/3/5 261/3/5 262/3/5
f 264/3/6 265/3/6 266/3/6
f 264/3/6 266/3/6 267/3/6
f 264/3/6 267/3/6 273/3/6
f 267/3/6 268/3/6 273/3/6
f 273/3/6 268/3/6 274/3/6
f 274/3/6 268/3/6 275/3/6
f 275/3/6 268/3/6 276/3/6
f 276/3/6 268/3/6 277/3/6
f 277/3/6 268/3/6 278/3/6
f 273/4/6 274/4/6 279/4/6
f 274/3/6 275/3/6 280/3/6
f 279/4/6 274/4/6 280/4/6
f 275/4/6 276/4/6 281/4/6
f 280/3/6 275/3/6 281/3/6
f 276/3/6 277/3/6 282/3/6
f 281/4/6 276/4/6 282/4/6
f 277/4/6 278/4/6 283/4/6
f 282/3/6 277/3/6 283/3/6
f 278/3/6 268/3/6 284/3/6
f 283/4/6 278/4/6 284/4/6
f 268/4/6 269/4/6 285/4/6
f 284/3/6 268/3/6 285/3/6
f 269/3/6 270/3/6 286/3/6
f 285/4/6 269/4/6 286/4/6
f 270/4/6 271/4/6 287/4/6
f 286/3/6 270/3/6 287/3/6
f 271/3/6 272/3/6 288/3/6
f 287/4/6 271/4/6 288/4/6
f 288/3/6 272/3/6 289/3/6
f 290/2/6 291/2/6 298/2/6
f 291/1/6 292/1/6 299/1/6
f 298/2/6 291/2/6 299/2/6
f 292/2/6 293/2/6 300/2/6
f 299/1/6 292/1/6 300/1/6
f 293/1/6 294/1/6 301/1/6
f 300/2/6 293/2/6 301/2/6
f 294/2/6 295/2/6 302/2/6
f 301/1/6 294/1/6 302/1/6
f 295/1/6 296/1/6 303/1/6
f 302/2/6 295/2/6 303/2/6
f 296/2/6 297/2/6 304/2/6
f 303/1/6 296/1/6 304/1/6
f 304/2/6 297/2/6 305/2/6
f 306/3/6 307/3/6 308/3/6
f 308/3/6 307/3/6 309/3/6
f 310/3/6 311/3/6 312/3/6
f 312/3/6 311/3/6 313/3/6
f 313/3/6 311/3/6 315/3/6
f 314/3/6 315/3/6 316/3/6
f 315/3/6 311/3/6 317/3/6
f 316/3/6 315/3/6 317/3/6
