# MagicaVoxel @ Ephtracy

# material
mtllib rake.mtl
usemtl palette

# normals
vn -1 0 0
vn 1 0 0
vn 0 0 1
vn 0 0 -1
vn 0 -1 0
vn 0 1 0

# texcoords
vt 0.970703 0.5
vt 0.974609 0.5

# verts
v -27.5 1 1
v -27.5 1 -1
v -27.5 2 2
v -27.5 2 1
v -27.5 2 -1
v -27.5 2 -2
v -27.5 4 2
v -27.5 4 1
v -27.5 4 -1
v -27.5 4 -2
v -27.5 5 1
v -27.5 5 -1
v 19.5 2 10
v 19.5 2 2
v 19.5 2 -2
v 19.5 2 -10
v 19.5 4 8
v 19.5 4 7
v 19.5 4 5
v 19.5 4 4
v 19.5 4 2
v 19.5 4 1
v 19.5 4 -1
v 19.5 4 -2
v 19.5 4 -4
v 19.5 4 -5
v 19.5 4 -7
v 19.5 4 -8
v 19.5 6 10
v 19.5 6 8
v 19.5 6 7
v 19.5 6 5
v 19.5 6 4
v 19.5 6 2
v 19.5 6 1
v 19.5 6 -1
v 19.5 6 -2
v 19.5 6 -4
v 19.5 6 -5
v 19.5 6 -7
v 19.5 6 -8
v 19.5 6 -10
v 18.5 1 1
v 18.5 1 -1
v 18.5 2 1
v 18.5 2 -1
v 18.5 4 1
v 18.5 4 -1
v 18.5 5 1
v 18.5 5 -1
v 21.5 2 10
v 21.5 2 -10
v 21.5 4 8
v 21.5 4 7
v 21.5 4 5
v 21.5 4 4
v 21.5 4 2
v 21.5 4 1
v 21.5 4 -1
v 21.5 4 -2
v 21.5 4 -4
v 21.5 4 -5
v 21.5 4 -7
v 21.5 4 -8
v 21.5 6 10
v 21.5 6 8
v 21.5 6 7
v 21.5 6 5
v 21.5 6 4
v 21.5 6 2
v 21.5 6 1
v 21.5 6 -1
v 21.5 6 -2
v 21.5 6 -4
v 21.5 6 -5
v 21.5 6 -7
v 21.5 6 -8
v 21.5 6 -10
v 19.5 2 10
v 19.5 6 10
v 21.5 2 10
v 21.5 6 10
v 19.5 4 7
v 19.5 6 7
v 21.5 4 7
v 21.5 6 7
v 19.5 4 4
v 19.5 6 4
v 21.5 4 4
v 21.5 6 4
v -27.5 2 2
v -27.5 4 2
v 16.5 2 2
v 16.5 4 2
v 19.5 2 2
v 19.5 4 2
v -27.5 1 1
v -27.5 2 1
v -27.5 4 1
v -27.5 5 1
v 16.5 1 1
v 16.5 2 1
v 16.5 4 1
v 16.5 5 1
v 18.5 1 1
v 18.5 2 1
v 18.5 4 1
v 18.5 5 1
v 19.5 4 1
v 19.5 6 1
v 21.5 4 1
v 21.5 6 1
v 19.5 4 -2
v 19.5 6 -2
v 21.5 4 -2
v 21.5 6 -2
v 19.5 4 -5
v 19.5 6 -5
v 21.5 4 -5
v 21.5 6 -5
v 19.5 4 -8
v 19.5 6 -8
v 21.5 4 -8
v 21.5 6 -8
v 19.5 4 8
v 19.5 6 8
v 21.5 4 8
v 21.5 6 8
v 19.5 4 5
v 19.5 6 5
v 21.5 4 5
v 21.5 6 5
v 19.5 4 2
v 19.5 6 2
v 21.5 4 2
v 21.5 6 2
v -27.5 1 -1
v -27.5 2 -1
v -27.5 4 -1
v -27.5 5 -1
v 16.5 1 -1
v 16.5 2 -1
v 16.5 4 -1
v 16.5 5 -1
v 18.5 1 -1
v 18.5 2 -1
v 18.5 4 -1
v 18.5 5 -1
v 19.5 4 -1
v 19.5 6 -1
v 21.5 4 -1
v 21.5 6 -1
v -27.5 2 -2
v -27.5 4 -2
v 16.5 2 -2
v 16.5 4 -2
v 19.5 2 -2
v 19.5 4 -2
v 19.5 4 -4
v 19.5 6 -4
v 21.5 4 -4
v 21.5 6 -4
v 19.5 4 -7
v 19.5 6 -7
v 21.5 4 -7
v 21.5 6 -7
v 19.5 2 -10
v 19.5 6 -10
v 21.5 2 -10
v 21.5 6 -10
v -27.5 1 1
v 16.5 1 1
v 18.5 1 1
v -27.5 1 -1
v 16.5 1 -1
v 18.5 1 -1
v 19.5 2 10
v 21.5 2 10
v -27.5 2 2
v 16.5 2 2
v 19.5 2 2
v -27.5 2 1
v 16.5 2 1
v 18.5 2 1
v -27.5 2 -1
v 16.5 2 -1
v 18.5 2 -1
v -27.5 2 -2
v 16.5 2 -2
v 19.5 2 -2
v 19.5 2 -10
v 21.5 2 -10
v 19.5 4 8
v 21.5 4 8
v 19.5 4 7
v 21.5 4 7
v 19.5 4 5
v 21.5 4 5
v 19.5 4 4
v 21.5 4 4
v -27.5 4 2
v 16.5 4 2
v 19.5 4 2
v 21.5 4 2
v -27.5 4 1
v 16.5 4 1
v 18.5 4 1
v 19.5 4 1
v 21.5 4 1
v -27.5 4 -1
v 16.5 4 -1
v 18.5 4 -1
v 19.5 4 -1
v 21.5 4 -1
v -27.5 4 -2
v 16.5 4 -2
v 19.5 4 -2
v 21.5 4 -2
v 19.5 4 -4
v 21.5 4 -4
v 19.5 4 -5
v 21.5 4 -5
v 19.5 4 -7
v 21.5 4 -7
v 19.5 4 -8
v 21.5 4 -8
v -27.5 5 1
v 16.5 5 1
v 18.5 5 1
v -27.5 5 -1
v 16.5 5 -1
v 18.5 5 -1
v 19.5 6 10
v 21.5 6 10
v 19.5 6 8
v 21.5 6 8
v 19.5 6 7
v 21.5 6 7
v 19.5 6 5
v 21.5 6 5
v 19.5 6 4
v 21.5 6 4
v 19.5 6 2
v 21.5 6 2
v 19.5 6 1
v 21.5 6 1
v 19.5 6 -1
v 21.5 6 -1
v 19.5 6 -2
v 21.5 6 -2
v 19.5 6 -4
v 21.5 6 -4
v 19.5 6 -5
v 21.5 6 -5
v 19.5 6 -7
v 21.5 6 -7
v 19.5 6 -8
v 21.5 6 -8
v 19.5 6 -10
v 21.5 6 -10

# faces
f 4/2/1 2/2/1 1/2/1
f 5/2/1 2/2/1 4/2/1
f 7/2/1 4/2/1 3/2/1
f 7/2/1 6/2/1 5/2/1
f 7/2/1 5/2/1 4/2/1
f 8/2/1 6/2/1 7/2/1
f 9/2/1 6/2/1 8/2/1
f 10/2/1 6/2/1 9/2/1
f 11/2/1 9/2/1 8/2/1
f 12/2/1 9/2/1 11/2/1
f 17/1/1 14/1/1 13/1/1
f 18/1/1 14/1/1 17/1/1
f 19/1/1 14/1/1 18/1/1
f 20/1/1 14/1/1 19/1/1
f 21/1/1 14/1/1 20/1/1
f 24/1/1 16/1/1 15/1/1
f 25/1/1 16/1/1 24/1/1
f 26/1/1 16/1/1 25/1/1
f 27/1/1 16/1/1 26/1/1
f 28/1/1 16/1/1 27/1/1
f 29/1/1 17/1/1 13/1/1
f 30/1/1 17/1/1 29/1/1
f 31/1/1 19/1/1 18/1/1
f 32/1/1 19/1/1 31/1/1
f 33/1/1 21/1/1 20/1/1
f 34/1/1 21/1/1 33/1/1
f 35/1/1 23/1/1 22/1/1
f 36/1/1 23/1/1 35/1/1
f 37/1/1 25/1/1 24/1/1
f 38/1/1 25/1/1 37/1/1
f 39/1/1 27/1/1 26/1/1
f 40/1/1 27/1/1 39/1/1
f 41/1/1 16/1/1 28/1/1
f 42/1/1 16/1/1 41/1/1
f 43/1/2 44/1/2 45/1/2
f 45/1/2 44/1/2 46/1/2
f 47/1/2 48/1/2 49/1/2
f 49/1/2 48/1/2 50/1/2
f 51/1/2 52/1/2 53/1/2
f 53/1/2 52/1/2 54/1/2
f 54/1/2 52/1/2 55/1/2
f 55/1/2 52/1/2 56/1/2
f 56/1/2 52/1/2 57/1/2
f 57/1/2 52/1/2 58/1/2
f 58/1/2 52/1/2 59/1/2
f 59/1/2 52/1/2 60/1/2
f 60/1/2 52/1/2 61/1/2
f 61/1/2 52/1/2 62/1/2
f 62/1/2 52/1/2 63/1/2
f 63/1/2 52/1/2 64/1/2
f 51/1/2 53/1/2 65/1/2
f 65/1/2 53/1/2 66/1/2
f 54/1/2 55/1/2 67/1/2
f 67/1/2 55/1/2 68/1/2
f 56/1/2 57/1/2 69/1/2
f 69/1/2 57/1/2 70/1/2
f 58/1/2 59/1/2 71/1/2
f 71/1/2 59/1/2 72/1/2
f 60/1/2 61/1/2 73/1/2
f 73/1/2 61/1/2 74/1/2
f 62/1/2 63/1/2 75/1/2
f 75/1/2 63/1/2 76/1/2
f 64/1/2 52/1/2 77/1/2
f 77/1/2 52/1/2 78/1/2
f 81/1/3 80/1/3 79/1/3
f 82/1/3 80/1/3 81/1/3
f 85/1/3 84/1/3 83/1/3
f 86/1/3 84/1/3 85/1/3
f 89/1/3 88/1/3 87/1/3
f 90/1/3 88/1/3 89/1/3
f 93/2/3 92/2/3 91/2/3
f 94/2/3 92/2/3 93/2/3
f 95/1/3 94/1/3 93/1/3
f 96/1/3 94/1/3 95/1/3
f 101/2/3 98/2/3 97/2/3
f 102/2/3 98/2/3 101/2/3
f 103/2/3 100/2/3 99/2/3
f 104/2/3 100/2/3 103/2/3
f 105/1/3 102/1/3 101/1/3
f 106/1/3 102/1/3 105/1/3
f 107/1/3 104/1/3 103/1/3
f 108/1/3 104/1/3 107/1/3
f 111/1/3 110/1/3 109/1/3
f 112/1/3 110/1/3 111/1/3
f 115/1/3 114/1/3 113/1/3
f 116/1/3 114/1/3 115/1/3
f 119/1/3 118/1/3 117/1/3
f 120/1/3 118/1/3 119/1/3
f 123/1/3 122/1/3 121/1/3
f 124/1/3 122/1/3 123/1/3
f 125/1/4 126/1/4 127/1/4
f 127/1/4 126/1/4 128/1/4
f 129/1/4 130/1/4 131/1/4
f 131/1/4 130/1/4 132/1/4
f 133/1/4 134/1/4 135/1/4
f 135/1/4 134/1/4 136/1/4
f 137/2/4 138/2/4 141/2/4
f 141/2/4 138/2/4 142/2/4
f 139/2/4 140/2/4 143/2/4
f 143/2/4 140/2/4 144/2/4
f 141/1/4 142/1/4 145/1/4
f 145/1/4 142/1/4 146/1/4
f 143/1/4 144/1/4 147/1/4
f 147/1/4 144/1/4 148/1/4
f 149/1/4 150/1/4 151/1/4
f 151/1/4 150/1/4 152/1/4
f 153/2/4 154/2/4 155/2/4
f 155/2/4 154/2/4 156/2/4
f 155/1/4 156/1/4 157/1/4
f 157/1/4 156/1/4 158/1/4
f 159/1/4 160/1/4 161/1/4
f 161/1/4 160/1/4 162/1/4
f 163/1/4 164/1/4 165/1/4
f 165/1/4 164/1/4 166/1/4
f 167/1/4 168/1/4 169/1/4
f 169/1/4 168/1/4 170/1/4
f 174/2/5 172/2/5 171/2/5
f 175/1/5 173/1/5 172/1/5
f 175/2/5 172/2/5 174/2/5
f 176/1/5 173/1/5 175/1/5
f 181/1/5 178/1/5 177/1/5
f 182/2/5 180/2/5 179/2/5
f 183/1/5 181/1/5 180/1/5
f 183/2/5 180/2/5 182/2/5
f 184/1/5 181/1/5 183/1/5
f 187/1/5 181/1/5 184/1/5
f 188/2/5 186/2/5 185/2/5
f 189/1/5 187/1/5 186/1/5
f 189/2/5 186/2/5 188/2/5
f 190/1/5 178/1/5 181/1/5
f 190/1/5 187/1/5 189/1/5
f 190/1/5 181/1/5 187/1/5
f 191/1/5 178/1/5 190/1/5
f 192/1/5 178/1/5 191/1/5
f 193/1/6 194/1/6 195/1/6
f 195/1/6 194/1/6 196/1/6
f 197/1/6 198/1/6 199/1/6
f 199/1/6 198/1/6 200/1/6
f 201/2/6 202/2/6 205/2/6
f 203/1/6 204/1/6 206/1/6
f 205/2/6 202/2/6 206/2/6
f 202/1/6 203/1/6 206/1/6
f 206/1/6 204/1/6 207/1/6
f 207/1/6 204/1/6 208/1/6
f 208/1/6 204/1/6 209/1/6
f 207/1/6 208/1/6 212/1/6
f 212/1/6 208/1/6 213/1/6
f 210/2/6 211/2/6 215/2/6
f 213/1/6 214/1/6 216/1/6
f 215/2/6 211/2/6 216/2/6
f 211/1/6 212/1/6 216/1/6
f 212/1/6 213/1/6 216/1/6
f 216/1/6 214/1/6 217/1/6
f 217/1/6 214/1/6 218/1/6
f 219/1/6 220/1/6 221/1/6
f 221/1/6 220/1/6 222/1/6
f 223/1/6 224/1/6 225/1/6
f 225/1/6 224/1/6 226/1/6
f 227/2/6 228/2/6 230/2/6
f 228/1/6 229/1/6 231/1/6
f 230/2/6 228/2/6 231/2/6
f 231/1/6 229/1/6 232/1/6
f 233/1/6 234/1/6 235/1/6
f 235/1/6 234/1/6 236/1/6
f 237/1/6 238/1/6 239/1/6
f 239/1/6 238/1/6 240/1/6
f 241/1/6 242/1/6 243/1/6
f 243/1/6 242/1/6 244/1/6
f 245/1/6 246/1/6 247/1/6
f 247/1/6 246/1/6 248/1/6
f 249/1/6 250/1/6 251/1/6
f 251/1/6 250/1/6 252/1/6
f 253/1/6 254/1/6 255/1/6
f 255/1/6 254/1/6 256/1/6
f 257/1/6 258/1/6 259/1/6
f 259/1/6 258/1/6 260/1/6
