# MagicaVoxel @ Ephtracy

# material
mtllib tomatoes.mtl
usemtl palette

# normals
vn -1 0 0
vn 1 0 0
vn 0 0 1
vn 0 0 -1
vn 0 -1 0
vn 0 1 0

# texcoords
vt 0.970703 0.5
vt 0.974609 0.5

# verts
v -7 2 1
v -7 2 -2
v -7 5 1
v -7 5 -2
v -6 5 -0
v -6 5 -1
v -6 6 -0
v -6 6 -1
v -6 8 1
v -6 8 -1
v -6 10 1
v -6 10 -0
v -6 10 -1
v -6 11 -0
v -6 11 -1
v -3 0 -0
v -3 0 -1
v -3 2 4
v -3 2 2
v -3 2 1
v -3 2 -0
v -3 3 2
v -3 3 1
v -3 4 4
v -3 4 3
v -3 4 2
v -3 4 1
v -3 4 -0
v -3 4 -1
v -3 5 3
v -3 5 1
v -3 5 -0
v -3 5 -1
v -3 6 -1
v -3 6 -2
v -3 7 -2
v -3 7 -4
v -3 7 -5
v -3 7 -6
v -3 8 -1
v -3 8 -3
v -3 8 -4
v -3 8 -5
v -3 8 -6
v -3 9 -0
v -3 9 -1
v -3 9 -3
v -3 9 -6
v -2 9 -0
v -2 9 -1
v -2 12 -0
v -2 12 -1
v -1 5 -0
v -1 5 -1
v -1 6 -0
v -1 6 -1
v -1 12 -0
v -1 12 -1
v -1 13 -0
v -1 13 -1
v 0 3 1
v 0 3 -2
v 0 4 -0
v 0 4 -1
v 0 6 1
v 0 6 -0
v 0 6 -1
v 0 6 -2
v 0 7 -0
v 0 7 -1
v 0 9 1
v 0 9 -2
v 0 12 1
v 0 12 -0
v 0 12 -1
v 0 12 -2
v -4 2 1
v -4 2 -2
v -4 4 -0
v -4 4 -1
v -4 5 1
v -4 5 -0
v -4 5 -1
v -4 5 -2
v -4 6 -0
v -4 6 -1
v -4 8 1
v -4 8 -1
v -4 9 -0
v -4 9 -1
v -4 10 1
v -4 10 -0
v -4 10 -1
v -4 11 -0
v -4 11 -1
v -3 9 -0
v -3 9 -1
v -3 10 -0
v -3 10 -1
v -2 0 -0
v -2 0 -1
v -2 2 1
v -2 2 -0
v -2 3 2
v -2 3 1
v -2 3 -0
v -2 3 -1
v -2 4 3
v -2 4 2
v -2 4 1
v -2 4 -0
v -2 5 3
v -2 5 1
v -2 5 -0
v -2 5 -1
v -2 6 -1
v -2 6 -2
v -2 7 -2
v -2 7 -4
v -2 7 -5
v -2 7 -6
v -2 8 -1
v -2 8 -3
v -2 8 -4
v -2 8 -5
v -2 8 -6
v -2 9 -0
v -2 9 -1
v -2 9 -3
v -2 9 -6
v -1 2 4
v -1 2 2
v -1 3 -0
v -1 3 -1
v -1 4 4
v -1 4 2
v -1 4 -0
v -1 4 -1
v -1 9 -0
v -1 9 -1
v -1 12 -0
v -1 12 -1
v 1 12 -0
v 1 12 -1
v 1 13 -0
v 1 13 -1
v 2 6 -0
v 2 6 -1
v 2 7 -0
v 2 7 -1
v 3 3 1
v 3 3 -2
v 3 6 1
v 3 6 -2
v 3 9 1
v 3 9 -2
v 3 12 1
v 3 12 -2
v -3 2 4
v -3 4 4
v -1 2 4
v -1 4 4
v -3 4 3
v -3 5 3
v -2 4 3
v -2 5 3
v -7 2 1
v -7 5 1
v -6 8 1
v -6 10 1
v -4 2 1
v -4 5 1
v -4 8 1
v -4 10 1
v -3 2 1
v -3 3 1
v -2 2 1
v -2 3 1
v 0 3 1
v 0 6 1
v 0 9 1
v 0 12 1
v 3 3 1
v 3 6 1
v 3 9 1
v 3 12 1
v -6 5 -0
v -6 6 -0
v -6 10 -0
v -6 11 -0
v -4 4 -0
v -4 5 -0
v -4 6 -0
v -4 9 -0
v -4 10 -0
v -4 11 -0
v -3 0 -0
v -3 2 -0
v -3 4 -0
v -3 5 -0
v -3 9 -0
v -3 10 -0
v -2 0 -0
v -2 2 -0
v -2 3 -0
v -2 4 -0
v -2 5 -0
v -2 9 -0
v -2 12 -0
v -1 3 -0
v -1 4 -0
v -1 5 -0
v -1 6 -0
v -1 9 -0
v -1 12 -0
v -1 13 -0
v 0 4 -0
v 0 6 -0
v 0 7 -0
v 0 12 -0
v 1 12 -0
v 1 13 -0
v 2 6 -0
v 2 7 -0
v -3 8 -3
v -3 9 -3
v -2 8 -3
v -2 9 -3
v -3 7 -5
v -3 8 -5
v -2 7 -5
v -2 8 -5
v -3 2 2
v -3 3 2
v -2 3 2
v -2 4 2
v -1 2 2
v -1 4 2
v -3 4 1
v -3 5 1
v -2 4 1
v -2 5 1
v -6 5 -1
v -6 6 -1
v -6 8 -1
v -6 10 -1
v -6 11 -1
v -4 4 -1
v -4 5 -1
v -4 6 -1
v -4 8 -1
v -4 9 -1
v -4 10 -1
v -4 11 -1
v -3 0 -1
v -3 4 -1
v -3 5 -1
v -3 6 -1
v -3 8 -1
v -3 9 -1
v -3 10 -1
v -2 0 -1
v -2 3 -1
v -2 5 -1
v -2 6 -1
v -2 8 -1
v -2 9 -1
v -2 12 -1
v -1 3 -1
v -1 4 -1
v -1 5 -1
v -1 6 -1
v -1 9 -1
v -1 12 -1
v -1 13 -1
v 0 4 -1
v 0 6 -1
v 0 7 -1
v 0 12 -1
v 1 12 -1
v 1 13 -1
v 2 6 -1
v 2 7 -1
v -7 2 -2
v -7 5 -2
v -4 2 -2
v -4 5 -2
v -3 6 -2
v -3 7 -2
v -2 6 -2
v -2 7 -2
v 0 3 -2
v 0 6 -2
v 0 9 -2
v 0 12 -2
v 3 3 -2
v 3 6 -2
v 3 9 -2
v 3 12 -2
v -3 7 -4
v -3 8 -4
v -2 7 -4
v -2 8 -4
v -3 7 -6
v -3 8 -6
v -3 9 -6
v -2 7 -6
v -2 8 -6
v -2 9 -6
v -3 0 -0
v -2 0 -0
v -3 0 -1
v -2 0 -1
v -3 2 4
v -1 2 4
v -3 2 2
v -1 2 2
v -7 2 1
v -4 2 1
v -3 2 1
v -2 2 1
v -3 2 -0
v -2 2 -0
v -7 2 -2
v -4 2 -2
v -3 3 2
v -2 3 2
v -3 3 1
v -2 3 1
v 0 3 1
v 3 3 1
v -2 3 -0
v -1 3 -0
v -2 3 -1
v -1 3 -1
v 0 3 -2
v 3 3 -2
v -4 4 -0
v -3 4 -0
v -1 4 -0
v 0 4 -0
v -4 4 -1
v -3 4 -1
v -1 4 -1
v 0 4 -1
v -3 6 -1
v -2 6 -1
v -3 6 -2
v -2 6 -2
v -3 7 -2
v -2 7 -2
v -3 7 -4
v -2 7 -4
v -3 7 -5
v -2 7 -5
v -3 7 -6
v -2 7 -6
v -6 8 1
v -4 8 1
v -6 8 -1
v -4 8 -1
v -3 8 -4
v -2 8 -4
v -3 8 -5
v -2 8 -5
v 0 9 1
v 3 9 1
v -4 9 -0
v -3 9 -0
v -2 9 -0
v -1 9 -0
v -4 9 -1
v -3 9 -1
v -2 9 -1
v -1 9 -1
v 0 9 -2
v 3 9 -2
v -1 12 -0
v 0 12 -0
v -1 12 -1
v 0 12 -1
v -3 4 4
v -1 4 4
v -3 4 3
v -2 4 3
v -2 4 2
v -1 4 2
v -3 4 1
v -2 4 1
v -3 4 -0
v -2 4 -0
v -3 5 3
v -2 5 3
v -7 5 1
v -4 5 1
v -3 5 1
v -2 5 1
v -6 5 -0
v -4 5 -0
v -3 5 -0
v -2 5 -0
v -1 5 -0
v -6 5 -1
v -4 5 -1
v -3 5 -1
v -2 5 -1
v -1 5 -1
v -7 5 -2
v -4 5 -2
v 0 6 1
v 3 6 1
v -6 6 -0
v -4 6 -0
v -1 6 -0
v 0 6 -0
v 2 6 -0
v -6 6 -1
v -4 6 -1
v -1 6 -1
v 0 6 -1
v 2 6 -1
v 0 6 -2
v 3 6 -2
v 0 7 -0
v 2 7 -0
v 0 7 -1
v 2 7 -1
v -3 8 -1
v -2 8 -1
v -3 8 -3
v -2 8 -3
v -3 9 -0
v -2 9 -0
v -3 9 -1
v -2 9 -1
v -3 9 -3
v -2 9 -3
v -3 9 -6
v -2 9 -6
v -6 10 1
v -4 10 1
v -6 10 -0
v -4 10 -0
v -3 10 -0
v -4 10 -1
v -3 10 -1
v -6 11 -0
v -4 11 -0
v -6 11 -1
v -4 11 -1
v 0 12 1
v 3 12 1
v -2 12 -0
v -1 12 -0
v 0 12 -0
v 1 12 -0
v -2 12 -1
v -1 12 -1
v 0 12 -1
v 1 12 -1
v 0 12 -2
v 3 12 -2
v -1 13 -0
v 1 13 -0
v -1 13 -1
v 1 13 -1

# faces
f 3/2/1 2/2/1 1/2/1
f 4/2/1 2/2/1 3/2/1
f 7/1/1 6/1/1 5/1/1
f 8/1/1 6/1/1 7/1/1
f 11/2/1 10/2/1 9/2/1
f 12/2/1 10/2/1 11/2/1
f 13/2/1 10/2/1 12/2/1
f 14/1/1 13/1/1 12/1/1
f 15/1/1 13/1/1 14/1/1
f 21/1/1 17/1/1 16/1/1
f 22/2/1 19/2/1 18/2/1
f 23/1/1 21/1/1 20/1/1
f 24/2/1 22/2/1 18/2/1
f 25/2/1 22/2/1 24/2/1
f 26/1/1 23/1/1 22/1/1
f 26/2/1 22/2/1 25/2/1
f 27/1/1 21/1/1 23/1/1
f 27/1/1 23/1/1 26/1/1
f 28/1/1 17/1/1 21/1/1
f 28/1/1 21/1/1 27/1/1
f 29/1/1 17/1/1 28/1/1
f 30/1/1 27/1/1 26/1/1
f 30/1/1 26/1/1 25/1/1
f 31/1/1 27/1/1 30/1/1
f 34/1/1 33/1/1 32/1/1
f 36/1/1 35/1/1 34/1/1
f 40/1/1 34/1/1 32/1/1
f 40/1/1 36/1/1 34/1/1
f 40/1/1 37/1/1 36/1/1
f 41/1/1 37/1/1 40/1/1
f 42/1/1 37/1/1 41/1/1
f 43/2/1 39/2/1 38/2/1
f 44/2/1 39/2/1 43/2/1
f 45/1/1 40/1/1 32/1/1
f 46/1/1 40/1/1 45/1/1
f 47/1/1 42/1/1 41/1/1
f 47/1/1 44/1/1 43/1/1
f 47/1/1 43/1/1 42/1/1
f 48/1/1 44/1/1 47/1/1
f 51/1/1 50/1/1 49/1/1
f 52/1/1 50/1/1 51/1/1
f 55/1/1 54/1/1 53/1/1
f 56/1/1 54/1/1 55/1/1
f 59/1/1 58/1/1 57/1/1
f 60/1/1 58/1/1 59/1/1
f 63/2/1 62/2/1 61/2/1
f 64/2/1 62/2/1 63/2/1
f 65/2/1 63/2/1 61/2/1
f 66/2/1 63/2/1 65/2/1
f 67/2/1 62/2/1 64/2/1
f 68/2/1 62/2/1 67/2/1
f 69/1/1 67/1/1 66/1/1
f 70/1/1 67/1/1 69/1/1
f 73/2/1 72/2/1 71/2/1
f 74/2/1 72/2/1 73/2/1
f 75/2/1 72/2/1 74/2/1
f 76/2/1 72/2/1 75/2/1
f 77/2/2 78/2/2 79/2/2
f 79/2/2 78/2/2 80/2/2
f 77/2/2 79/2/2 81/2/2
f 81/2/2 79/2/2 82/2/2
f 80/2/2 78/2/2 83/2/2
f 83/2/2 78/2/2 84/2/2
f 82/1/2 83/1/2 85/1/2
f 85/1/2 83/1/2 86/1/2
f 87/2/2 88/2/2 89/2/2
f 89/2/2 88/2/2 90/2/2
f 87/2/2 89/2/2 91/2/2
f 91/2/2 89/2/2 92/2/2
f 92/1/2 93/1/2 94/1/2
f 94/1/2 93/1/2 95/1/2
f 96/1/2 97/1/2 98/1/2
f 98/1/2 97/1/2 99/1/2
f 100/1/2 101/1/2 103/1/2
f 102/1/2 103/1/2 105/1/2
f 103/1/2 101/1/2 106/1/2
f 105/1/2 103/1/2 106/1/2
f 106/1/2 101/1/2 107/1/2
f 104/1/2 105/1/2 109/1/2
f 105/1/2 106/1/2 109/1/2
f 109/1/2 106/1/2 110/1/2
f 110/1/2 106/1/2 111/1/2
f 108/1/2 109/1/2 112/1/2
f 109/1/2 110/1/2 112/1/2
f 112/1/2 110/1/2 113/1/2
f 114/1/2 115/1/2 116/1/2
f 116/1/2 117/1/2 118/1/2
f 114/1/2 116/1/2 122/1/2
f 116/1/2 118/1/2 122/1/2
f 118/1/2 119/1/2 122/1/2
f 122/1/2 119/1/2 123/1/2
f 123/1/2 119/1/2 124/1/2
f 120/2/2 121/2/2 125/2/2
f 125/2/2 121/2/2 126/2/2
f 114/1/2 122/1/2 127/1/2
f 127/1/2 122/1/2 128/1/2
f 123/1/2 124/1/2 129/1/2
f 125/1/2 126/1/2 129/1/2
f 124/1/2 125/1/2 129/1/2
f 129/1/2 126/1/2 130/1/2
f 131/2/2 132/2/2 135/2/2
f 135/2/2 132/2/2 136/2/2
f 133/1/2 134/1/2 137/1/2
f 137/1/2 134/1/2 138/1/2
f 139/1/2 140/1/2 141/1/2
f 141/1/2 140/1/2 142/1/2
f 143/1/2 144/1/2 145/1/2
f 145/1/2 144/1/2 146/1/2
f 147/1/2 148/1/2 149/1/2
f 149/1/2 148/1/2 150/1/2
f 151/2/2 152/2/2 153/2/2
f 153/2/2 152/2/2 154/2/2
f 155/2/2 156/2/2 157/2/2
f 157/2/2 156/2/2 158/2/2
f 161/2/3 160/2/3 159/2/3
f 162/2/3 160/2/3 161/2/3
f 165/1/3 164/1/3 163/1/3
f 166/1/3 164/1/3 165/1/3
f 171/2/3 168/2/3 167/2/3
f 172/2/3 168/2/3 171/2/3
f 173/2/3 170/2/3 169/2/3
f 174/2/3 170/2/3 173/2/3
f 177/1/3 176/1/3 175/1/3
f 178/1/3 176/1/3 177/1/3
f 183/2/3 180/2/3 179/2/3
f 184/2/3 180/2/3 183/2/3
f 185/2/3 182/2/3 181/2/3
f 186/2/3 182/2/3 185/2/3
f 192/1/3 188/1/3 187/1/3
f 193/1/3 188/1/3 192/1/3
f 195/1/3 190/1/3 189/1/3
f 196/1/3 190/1/3 195/1/3
f 199/1/3 192/1/3 191/1/3
f 200/1/3 192/1/3 199/1/3
f 201/1/3 195/1/3 194/1/3
f 202/1/3 195/1/3 201/1/3
f 203/1/3 198/1/3 197/1/3
f 204/1/3 198/1/3 203/1/3
f 206/1/3 200/1/3 199/1/3
f 206/1/3 201/1/3 200/1/3
f 207/1/3 201/1/3 206/1/3
f 208/1/3 201/1/3 207/1/3
f 210/1/3 207/1/3 206/1/3
f 210/1/3 206/1/3 205/1/3
f 211/1/3 207/1/3 210/1/3
f 212/1/3 207/1/3 211/1/3
f 214/1/3 209/1/3 208/1/3
f 215/1/3 209/1/3 214/1/3
f 217/1/3 213/1/3 212/1/3
f 217/1/3 212/1/3 211/1/3
f 218/1/3 213/1/3 217/1/3
f 220/1/3 216/1/3 215/1/3
f 221/1/3 216/1/3 220/1/3
f 222/1/3 216/1/3 221/1/3
f 223/1/3 219/1/3 218/1/3
f 224/1/3 219/1/3 223/1/3
f 227/1/3 226/1/3 225/1/3
f 228/1/3 226/1/3 227/1/3
f 231/2/3 230/2/3 229/2/3
f 232/2/3 230/2/3 231/2/3
f 233/2/4 234/2/4 235/2/4
f 233/2/4 235/2/4 237/2/4
f 235/2/4 236/2/4 237/2/4
f 237/2/4 236/2/4 238/2/4
f 239/1/4 240/1/4 241/1/4
f 241/1/4 240/1/4 242/1/4
f 243/1/4 244/1/4 249/1/4
f 249/1/4 244/1/4 250/1/4
f 245/2/4 246/2/4 251/2/4
f 251/2/4 246/2/4 252/2/4
f 246/1/4 247/1/4 253/1/4
f 252/2/4 246/2/4 253/2/4
f 253/1/4 247/1/4 254/1/4
f 248/1/4 249/1/4 256/1/4
f 256/1/4 249/1/4 257/1/4
f 252/1/4 253/1/4 260/1/4
f 260/1/4 253/1/4 261/1/4
f 257/1/4 258/1/4 262/1/4
f 255/1/4 256/1/4 262/1/4
f 256/1/4 257/1/4 262/1/4
f 262/1/4 258/1/4 263/1/4
f 263/1/4 258/1/4 264/1/4
f 264/1/4 258/1/4 265/1/4
f 259/1/4 260/1/4 266/1/4
f 266/1/4 260/1/4 267/1/4
f 263/1/4 264/1/4 269/1/4
f 269/1/4 264/1/4 270/1/4
f 270/1/4 264/1/4 271/1/4
f 267/1/4 268/1/4 273/1/4
f 273/1/4 268/1/4 274/1/4
f 271/1/4 272/1/4 276/1/4
f 270/1/4 271/1/4 276/1/4
f 276/1/4 272/1/4 277/1/4
f 274/1/4 275/1/4 279/1/4
f 279/1/4 275/1/4 280/1/4
f 280/1/4 275/1/4 281/1/4
f 277/1/4 278/1/4 282/1/4
f 282/1/4 278/1/4 283/1/4
f 284/2/4 285/2/4 286/2/4
f 286/2/4 285/2/4 287/2/4
f 288/1/4 289/1/4 290/1/4
f 290/1/4 289/1/4 291/1/4
f 292/2/4 293/2/4 296/2/4
f 296/2/4 293/2/4 297/2/4
f 294/2/4 295/2/4 298/2/4
f 298/2/4 295/2/4 299/2/4
f 300/1/4 301/1/4 302/1/4
f 302/1/4 301/1/4 303/1/4
f 304/2/4 305/2/4 307/2/4
f 305/1/4 306/1/4 308/1/4
f 307/2/4 305/2/4 308/2/4
f 308/1/4 306/1/4 309/1/4
f 312/1/5 311/1/5 310/1/5
f 313/1/5 311/1/5 312/1/5
f 316/2/5 315/2/5 314/2/5
f 317/2/5 315/2/5 316/2/5
f 322/1/5 321/1/5 320/1/5
f 323/1/5 321/1/5 322/1/5
f 324/2/5 319/2/5 318/2/5
f 325/2/5 319/2/5 324/2/5
f 328/1/5 327/1/5 326/1/5
f 329/1/5 327/1/5 328/1/5
f 334/1/5 333/1/5 332/1/5
f 335/1/5 333/1/5 334/1/5
f 336/2/5 331/2/5 330/2/5
f 337/2/5 331/2/5 336/2/5
f 342/1/5 339/1/5 338/1/5
f 343/1/5 339/1/5 342/1/5
f 344/1/5 341/1/5 340/1/5
f 345/1/5 341/1/5 344/1/5
f 348/1/5 347/1/5 346/1/5
f 349/1/5 347/1/5 348/1/5
f 352/1/5 351/1/5 350/1/5
f 353/1/5 351/1/5 352/1/5
f 356/2/5 355/2/5 354/2/5
f 357/2/5 355/2/5 356/2/5
f 360/2/5 359/2/5 358/2/5
f 361/2/5 359/2/5 360/2/5
f 364/1/5 363/1/5 362/1/5
f 365/1/5 363/1/5 364/1/5
f 372/1/5 369/1/5 368/1/5
f 373/1/5 369/1/5 372/1/5
f 374/1/5 371/1/5 370/1/5
f 375/1/5 371/1/5 374/1/5
f 376/2/5 367/2/5 366/2/5
f 377/2/5 367/2/5 376/2/5
f 380/1/5 379/1/5 378/1/5
f 381/1/5 379/1/5 380/1/5
f 382/2/6 383/2/6 384/2/6
f 384/2/6 383/2/6 385/2/6
f 385/2/6 383/2/6 386/2/6
f 386/2/6 383/2/6 387/2/6
f 388/1/6 389/1/6 390/1/6
f 390/1/6 389/1/6 391/1/6
f 392/1/6 393/1/6 396/1/6
f 396/1/6 393/1/6 397/1/6
f 394/2/6 395/2/6 398/2/6
f 398/2/6 395/2/6 399/2/6
f 394/2/6 398/2/6 403/2/6
f 399/1/6 400/1/6 404/1/6
f 404/1/6 400/1/6 405/1/6
f 401/1/6 402/1/6 406/1/6
f 406/1/6 402/1/6 407/1/6
f 394/2/6 403/2/6 408/2/6
f 403/2/6 404/2/6 408/2/6
f 408/2/6 404/2/6 409/2/6
f 410/2/6 411/2/6 415/2/6
f 415/2/6 411/2/6 416/2/6
f 412/1/6 413/1/6 417/1/6
f 417/1/6 413/1/6 418/1/6
f 414/1/6 415/1/6 419/1/6
f 419/1/6 415/1/6 420/1/6
f 416/2/6 411/2/6 421/2/6
f 420/2/6 421/2/6 422/2/6
f 421/2/6 411/2/6 423/2/6
f 422/2/6 421/2/6 423/2/6
f 424/1/6 425/1/6 426/1/6
f 426/1/6 425/1/6 427/1/6
f 428/1/6 429/1/6 430/1/6
f 430/1/6 429/1/6 431/1/6
f 432/1/6 433/1/6 434/1/6
f 434/1/6 433/1/6 435/1/6
f 436/1/6 437/1/6 438/1/6
f 438/1/6 437/1/6 439/1/6
f 440/2/6 441/2/6 442/2/6
f 442/2/6 441/2/6 443/2/6
f 443/1/6 444/1/6 445/1/6
f 445/1/6 444/1/6 446/1/6
f 447/1/6 448/1/6 449/1/6
f 449/1/6 448/1/6 450/1/6
f 451/2/6 452/2/6 455/2/6
f 455/2/6 452/2/6 456/2/6
f 453/1/6 454/1/6 457/1/6
f 457/1/6 454/1/6 458/1/6
f 456/2/6 452/2/6 460/2/6
f 459/2/6 460/2/6 461/2/6
f 460/2/6 452/2/6 462/2/6
f 461/2/6 460/2/6 462/2/6
f 463/1/6 464/1/6 465/1/6
f 465/1/6 464/1/6 466/1/6
