# MagicaVoxel @ Ephtracy

# material
mtllib fermer head.mtl
usemtl palette

# normals
vn -1 0 0
vn 1 0 0
vn 0 0 1
vn 0 0 -1
vn 0 -1 0
vn 0 1 0

# texcoords
vt 0.970703 0.5
vt 0.978516 0.5
vt 0.982422 0.5

# verts
v -9 10 9
v -9 10 -9
v -9 11 9
v -9 11 -9
v -6 0 6
v -6 0 -6
v -6 10 6
v -6 10 -6
v -5 11 5
v -5 11 -5
v -5 13 5
v -5 13 -5
v -5 14 5
v -5 14 -5
v -5 16 5
v -5 16 -5
v -3 14 6
v -3 14 5
v -3 15 6
v -3 15 5
v -2 11 6
v -2 11 5
v -2 12 6
v -2 12 5
v -1 12 6
v -1 12 5
v -1 13 6
v -1 13 5
v 0 11 6
v 0 11 5
v 0 12 6
v 0 12 5
v 0 14 6
v 0 14 5
v 0 15 6
v 0 15 5
v -1 11 6
v -1 11 5
v -1 12 6
v -1 12 5
v -1 14 6
v -1 14 5
v -1 15 6
v -1 15 5
v 0 12 6
v 0 12 5
v 0 13 6
v 0 13 5
v 1 11 6
v 1 11 5
v 1 12 6
v 1 12 5
v 2 14 6
v 2 14 5
v 2 15 6
v 2 15 5
v 5 11 5
v 5 11 -5
v 5 13 5
v 5 13 -5
v 5 14 5
v 5 14 -5
v 5 16 5
v 5 16 -5
v 6 0 6
v 6 0 -6
v 6 10 6
v 6 10 -6
v 9 10 9
v 9 10 -9
v 9 11 9
v 9 11 -9
v -9 10 9
v -9 11 9
v 9 10 9
v 9 11 9
v -6 0 6
v -6 10 6
v -3 14 6
v -3 15 6
v -2 11 6
v -2 12 6
v -1 11 6
v -1 12 6
v -1 13 6
v -1 14 6
v -1 15 6
v 0 11 6
v 0 12 6
v 0 13 6
v 0 14 6
v 0 15 6
v 1 11 6
v 1 12 6
v 2 14 6
v 2 15 6
v 6 0 6
v 6 10 6
v -5 11 5
v -5 13 5
v -5 14 5
v -5 16 5
v -3 14 5
v -3 15 5
v -2 11 5
v -2 12 5
v -1 11 5
v -1 12 5
v -1 13 5
v -1 14 5
v -1 15 5
v 0 11 5
v 0 12 5
v 0 13 5
v 0 14 5
v 0 15 5
v 1 11 5
v 1 12 5
v 2 14 5
v 2 15 5
v 5 11 5
v 5 13 5
v 5 14 5
v 5 16 5
v -5 11 -5
v -5 13 -5
v -5 14 -5
v -5 16 -5
v 5 11 -5
v 5 13 -5
v 5 14 -5
v 5 16 -5
v -6 0 -6
v -6 10 -6
v 6 0 -6
v 6 10 -6
v -9 10 -9
v -9 11 -9
v 9 10 -9
v 9 11 -9
v -6 0 6
v 6 0 6
v -6 0 -6
v 6 0 -6
v -9 10 9
v 9 10 9
v -6 10 6
v 6 10 6
v -6 10 -6
v 6 10 -6
v -9 10 -9
v 9 10 -9
v -1 12 6
v 0 12 6
v -1 12 5
v 0 12 5
v -3 14 6
v -1 14 6
v 0 14 6
v 2 14 6
v -3 14 5
v -1 14 5
v 0 14 5
v 2 14 5
v -9 11 9
v 9 11 9
v -2 11 6
v -1 11 6
v 0 11 6
v 1 11 6
v -5 11 5
v -2 11 5
v -1 11 5
v 0 11 5
v 1 11 5
v 5 11 5
v -5 11 -5
v 5 11 -5
v -9 11 -9
v 9 11 -9
v -2 12 6
v -1 12 6
v 0 12 6
v 1 12 6
v -2 12 5
v -1 12 5
v 0 12 5
v 1 12 5
v -1 13 6
v 0 13 6
v -1 13 5
v 0 13 5
v -3 15 6
v -1 15 6
v 0 15 6
v 2 15 6
v -3 15 5
v -1 15 5
v 0 15 5
v 2 15 5
v -5 16 5
v 5 16 5
v -5 16 -5
v 5 16 -5

# faces
f 3/2/1 2/2/1 1/2/1
f 4/2/1 2/2/1 3/2/1
f 7/1/1 6/1/1 5/1/1
f 8/1/1 6/1/1 7/1/1
f 11/2/1 10/2/1 9/2/1
f 12/2/1 10/2/1 11/2/1
f 13/3/1 12/3/1 11/3/1
f 14/3/1 12/3/1 13/3/1
f 15/2/1 14/2/1 13/2/1
f 16/2/1 14/2/1 15/2/1
f 19/3/1 18/3/1 17/3/1
f 20/3/1 18/3/1 19/3/1
f 23/3/1 22/3/1 21/3/1
f 24/3/1 22/3/1 23/3/1
f 27/3/1 26/3/1 25/3/1
f 28/3/1 26/3/1 27/3/1
f 31/3/1 30/3/1 29/3/1
f 32/3/1 30/3/1 31/3/1
f 35/3/1 34/3/1 33/3/1
f 36/3/1 34/3/1 35/3/1
f 37/3/2 38/3/2 39/3/2
f 39/3/2 38/3/2 40/3/2
f 41/3/2 42/3/2 43/3/2
f 43/3/2 42/3/2 44/3/2
f 45/3/2 46/3/2 47/3/2
f 47/3/2 46/3/2 48/3/2
f 49/3/2 50/3/2 51/3/2
f 51/3/2 50/3/2 52/3/2
f 53/3/2 54/3/2 55/3/2
f 55/3/2 54/3/2 56/3/2
f 57/2/2 58/2/2 59/2/2
f 59/2/2 58/2/2 60/2/2
f 59/3/2 60/3/2 61/3/2
f 61/3/2 60/3/2 62/3/2
f 61/2/2 62/2/2 63/2/2
f 63/2/2 62/2/2 64/2/2
f 65/1/2 66/1/2 67/1/2
f 67/1/2 66/1/2 68/1/2
f 69/2/2 70/2/2 71/2/2
f 71/2/2 70/2/2 72/2/2
f 75/2/3 74/2/3 73/2/3
f 76/2/3 74/2/3 75/2/3
f 83/3/3 82/3/3 81/3/3
f 84/3/3 82/3/3 83/3/3
f 86/3/3 80/3/3 79/3/3
f 87/3/3 80/3/3 86/3/3
f 89/3/3 85/3/3 84/3/3
f 90/3/3 85/3/3 89/3/3
f 93/3/3 89/3/3 88/3/3
f 94/3/3 89/3/3 93/3/3
f 95/3/3 92/3/3 91/3/3
f 96/3/3 92/3/3 95/3/3
f 97/1/3 78/1/3 77/1/3
f 98/1/3 78/1/3 97/1/3
f 103/3/3 101/3/3 100/3/3
f 103/2/3 102/2/3 101/2/3
f 104/2/3 102/2/3 103/2/3
f 105/2/3 100/2/3 99/2/3
f 106/2/3 100/2/3 105/2/3
f 108/2/3 100/2/3 106/2/3
f 109/3/3 103/3/3 100/3/3
f 109/2/3 100/2/3 108/2/3
f 110/3/3 103/3/3 109/3/3
f 111/2/3 102/2/3 104/2/3
f 112/2/3 108/2/3 107/2/3
f 113/2/3 108/2/3 112/2/3
f 114/3/3 110/3/3 109/3/3
f 115/2/3 111/2/3 110/2/3
f 115/3/3 110/3/3 114/3/3
f 116/2/3 102/2/3 111/2/3
f 116/2/3 111/2/3 115/2/3
f 118/2/3 114/2/3 113/2/3
f 119/3/3 115/3/3 114/3/3
f 120/2/3 102/2/3 116/2/3
f 121/2/3 118/2/3 117/2/3
f 122/3/3 119/3/3 114/3/3
f 122/2/3 118/2/3 121/2/3
f 122/2/3 114/2/3 118/2/3
f 123/2/3 120/2/3 119/2/3
f 123/3/3 119/3/3 122/3/3
f 124/2/3 102/2/3 120/2/3
f 124/2/3 120/2/3 123/2/3
f 125/2/4 126/2/4 129/2/4
f 126/3/4 127/3/4 130/3/4
f 129/2/4 126/2/4 130/2/4
f 127/2/4 128/2/4 131/2/4
f 130/3/4 127/3/4 131/3/4
f 131/2/4 128/2/4 132/2/4
f 133/1/4 134/1/4 135/1/4
f 135/1/4 134/1/4 136/1/4
f 137/2/4 138/2/4 139/2/4
f 139/2/4 138/2/4 140/2/4
f 143/1/5 142/1/5 141/1/5
f 144/1/5 142/1/5 143/1/5
f 147/2/5 146/2/5 145/2/5
f 148/2/5 146/2/5 147/2/5
f 149/2/5 147/2/5 145/2/5
f 150/2/5 146/2/5 148/2/5
f 151/2/5 149/2/5 145/2/5
f 151/2/5 150/2/5 149/2/5
f 152/2/5 146/2/5 150/2/5
f 152/2/5 150/2/5 151/2/5
f 155/3/5 154/3/5 153/3/5
f 156/3/5 154/3/5 155/3/5
f 161/3/5 158/3/5 157/3/5
f 162/3/5 158/3/5 161/3/5
f 163/3/5 160/3/5 159/3/5
f 164/3/5 160/3/5 163/3/5
f 165/2/6 166/2/6 167/2/6
f 167/2/6 166/2/6 168/2/6
f 168/2/6 166/2/6 169/2/6
f 169/2/6 166/2/6 170/2/6
f 165/2/6 167/2/6 171/2/6
f 171/2/6 167/2/6 172/2/6
f 168/2/6 169/2/6 173/2/6
f 173/2/6 169/2/6 174/2/6
f 170/2/6 166/2/6 175/2/6
f 175/2/6 166/2/6 176/2/6
f 165/2/6 171/2/6 177/2/6
f 176/2/6 166/2/6 178/2/6
f 165/2/6 177/2/6 179/2/6
f 177/2/6 178/2/6 179/2/6
f 178/2/6 166/2/6 180/2/6
f 179/2/6 178/2/6 180/2/6
f 181/3/6 182/3/6 185/3/6
f 185/3/6 182/3/6 186/3/6
f 183/3/6 184/3/6 187/3/6
f 187/3/6 184/3/6 188/3/6
f 189/3/6 190/3/6 191/3/6
f 191/3/6 190/3/6 192/3/6
f 193/3/6 194/3/6 197/3/6
f 197/3/6 194/3/6 198/3/6
f 195/3/6 196/3/6 199/3/6
f 199/3/6 196/3/6 200/3/6
f 201/2/6 202/2/6 203/2/6
f 203/2/6 202/2/6 204/2/6
